<svg width="960" height="600" viewBox="0 0 960 600" fill="none" xmlns="http://www.w3.org/2000/svg">
<g clip-path="url(#clip0_145_393)">
<rect x="69.75" y="294.122" width="844.682" height="757.081" fill="white"/>
<g clip-path="url(#clip1_145_393)">
<path d="M69.75 226.51C69.75 216.149 78.1492 207.75 88.5101 207.75H895.671C906.032 207.75 914.432 216.149 914.432 226.51V339.96H69.75V226.51Z" fill="#DEE1E6"/>
<g clip-path="url(#clip2_145_393)">
<path fill-rule="evenodd" clip-rule="evenodd" d="M882.618 265.869C884.553 265.869 886.136 264.286 886.136 262.352C886.136 260.417 884.553 258.834 882.618 258.834C880.683 258.834 879.101 260.417 879.101 262.352C879.101 264.286 880.683 265.869 882.618 265.869ZM882.618 269.387C880.684 269.387 879.101 270.969 879.101 272.904C879.101 274.839 880.684 276.422 882.618 276.422C884.553 276.422 886.136 274.839 886.136 272.904C886.136 270.969 884.553 269.387 882.618 269.387ZM882.618 279.939C880.684 279.939 879.101 281.522 879.101 283.457C879.101 285.391 880.684 286.974 882.618 286.974C884.553 286.974 886.136 285.391 886.136 283.457C886.136 281.522 884.553 279.939 882.618 279.939Z" fill="#5F6368"/>
</g>
<g clip-path="url(#clip3_145_393)">
<rect x="383.981" y="241.127" width="339.641" height="65.6602" rx="32.8301" fill="#F1F3F4"/>
<path fill-rule="evenodd" clip-rule="evenodd" d="M693.986 268.893L686.029 268.202L682.922 260.886C682.363 259.555 680.456 259.555 679.897 260.886L676.79 268.219L668.849 268.893C667.403 269.008 666.811 270.816 667.912 271.77L673.946 276.998L672.137 284.757C671.808 286.171 673.337 287.289 674.587 286.533L681.409 282.423L688.232 286.549C689.481 287.305 691.01 286.187 690.682 284.774L688.873 276.998L694.907 271.77C696.008 270.816 695.433 269.008 693.986 268.893V268.893ZM681.409 279.348L675.228 283.08L676.872 276.044L671.414 271.309L678.614 270.684L681.409 264.059L684.22 270.701L691.421 271.326L685.963 276.06L687.607 283.097L681.409 279.348Z" fill="#5F6368"/>
<path d="M470.568 283.08C471.273 283.08 471.925 282.936 472.524 282.647C473.122 282.359 473.614 281.963 473.999 281.461C474.383 280.948 474.602 280.366 474.656 279.714H477.477C477.424 280.74 477.076 281.696 476.435 282.583C475.805 283.459 474.976 284.17 473.951 284.715C472.925 285.249 471.797 285.517 470.568 285.517C469.264 285.517 468.126 285.287 467.154 284.827C466.192 284.368 465.39 283.737 464.749 282.936C464.119 282.134 463.643 281.215 463.322 280.179C463.012 279.131 462.858 278.025 462.858 276.86V276.187C462.858 275.022 463.012 273.921 463.322 272.885C463.643 271.837 464.119 270.913 464.749 270.112C465.39 269.31 466.192 268.679 467.154 268.22C468.126 267.76 469.264 267.531 470.568 267.531C471.925 267.531 473.112 267.808 474.127 268.364C475.142 268.909 475.938 269.657 476.515 270.608C477.103 271.549 477.424 272.618 477.477 273.815H474.656C474.602 273.098 474.399 272.452 474.047 271.875C473.705 271.298 473.234 270.838 472.636 270.496C472.048 270.144 471.359 269.967 470.568 269.967C469.66 269.967 468.896 270.149 468.276 270.512C467.667 270.865 467.18 271.346 466.817 271.955C466.464 272.553 466.208 273.221 466.048 273.959C465.898 274.685 465.823 275.428 465.823 276.187V276.86C465.823 277.619 465.898 278.367 466.048 279.105C466.197 279.842 466.448 280.51 466.801 281.108C467.164 281.707 467.651 282.188 468.26 282.551C468.88 282.904 469.649 283.08 470.568 283.08ZM484.363 260.573V285.196H481.398V260.573H484.363ZM483.658 275.866L482.424 275.818C482.434 274.632 482.611 273.537 482.953 272.532C483.295 271.517 483.776 270.635 484.395 269.887C485.015 269.139 485.753 268.562 486.608 268.156C487.473 267.739 488.43 267.531 489.477 267.531C490.332 267.531 491.101 267.648 491.785 267.883C492.469 268.108 493.052 268.471 493.533 268.973C494.024 269.476 494.398 270.128 494.655 270.929C494.911 271.72 495.04 272.687 495.04 273.831V285.196H492.058V273.798C492.058 272.89 491.924 272.163 491.657 271.618C491.39 271.063 491 270.662 490.487 270.416C489.974 270.16 489.343 270.031 488.595 270.031C487.858 270.031 487.185 270.186 486.576 270.496C485.977 270.806 485.459 271.234 485.021 271.779C484.593 272.324 484.256 272.949 484.011 273.654C483.776 274.349 483.658 275.086 483.658 275.866ZM503.032 270.576V285.196H500.066V267.851H502.952L503.032 270.576ZM508.45 267.755L508.434 270.512C508.188 270.459 507.953 270.427 507.729 270.416C507.515 270.395 507.269 270.384 506.991 270.384C506.307 270.384 505.704 270.491 505.18 270.705C504.656 270.918 504.213 271.218 503.849 271.602C503.486 271.987 503.197 272.447 502.984 272.981C502.781 273.505 502.647 274.082 502.583 274.712L501.749 275.193C501.749 274.146 501.851 273.163 502.054 272.244C502.268 271.324 502.594 270.512 503.032 269.807C503.47 269.091 504.026 268.535 504.699 268.14C505.383 267.734 506.195 267.531 507.136 267.531C507.349 267.531 507.595 267.557 507.873 267.611C508.151 267.654 508.343 267.702 508.45 267.755ZM510.671 276.716V276.347C510.671 275.097 510.853 273.937 511.216 272.869C511.58 271.789 512.103 270.854 512.787 270.063C513.471 269.262 514.3 268.642 515.272 268.204C516.245 267.755 517.335 267.531 518.542 267.531C519.761 267.531 520.856 267.755 521.829 268.204C522.812 268.642 523.645 269.262 524.329 270.063C525.024 270.854 525.553 271.789 525.916 272.869C526.28 273.937 526.461 275.097 526.461 276.347V276.716C526.461 277.966 526.28 279.126 525.916 280.195C525.553 281.263 525.024 282.198 524.329 283C523.645 283.791 522.817 284.411 521.845 284.859C520.883 285.298 519.793 285.517 518.574 285.517C517.356 285.517 516.261 285.298 515.288 284.859C514.316 284.411 513.482 283.791 512.787 283C512.103 282.198 511.58 281.263 511.216 280.195C510.853 279.126 510.671 277.966 510.671 276.716ZM513.637 276.347V276.716C513.637 277.582 513.739 278.399 513.942 279.169C514.145 279.927 514.449 280.601 514.855 281.188C515.272 281.776 515.79 282.241 516.41 282.583C517.03 282.914 517.751 283.08 518.574 283.08C519.387 283.08 520.097 282.914 520.706 282.583C521.326 282.241 521.839 281.776 522.245 281.188C522.651 280.601 522.956 279.927 523.159 279.169C523.373 278.399 523.48 277.582 523.48 276.716V276.347C523.48 275.492 523.373 274.685 523.159 273.927C522.956 273.157 522.646 272.479 522.229 271.891C521.823 271.292 521.31 270.822 520.69 270.48C520.081 270.138 519.365 269.967 518.542 269.967C517.73 269.967 517.014 270.138 516.394 270.48C515.785 270.822 515.272 271.292 514.855 271.891C514.449 272.479 514.145 273.157 513.942 273.927C513.739 274.685 513.637 275.492 513.637 276.347ZM533.716 271.298V285.196H530.735V267.851H533.556L533.716 271.298ZM533.107 275.866L531.728 275.818C531.739 274.632 531.894 273.537 532.193 272.532C532.493 271.517 532.936 270.635 533.524 269.887C534.112 269.139 534.844 268.562 535.72 268.156C536.596 267.739 537.612 267.531 538.766 267.531C539.578 267.531 540.326 267.648 541.01 267.883C541.694 268.108 542.287 268.466 542.789 268.957C543.292 269.449 543.682 270.079 543.96 270.849C544.237 271.618 544.376 272.548 544.376 273.638V285.196H541.411V273.782C541.411 272.874 541.256 272.147 540.946 271.602C540.647 271.057 540.219 270.662 539.663 270.416C539.108 270.16 538.456 270.031 537.708 270.031C536.831 270.031 536.099 270.186 535.512 270.496C534.924 270.806 534.454 271.234 534.101 271.779C533.748 272.324 533.492 272.949 533.331 273.654C533.182 274.349 533.107 275.086 533.107 275.866ZM544.344 274.231L542.357 274.84C542.367 273.889 542.522 272.976 542.821 272.099C543.131 271.223 543.575 270.443 544.152 269.759C544.74 269.075 545.461 268.535 546.316 268.14C547.171 267.734 548.149 267.531 549.25 267.531C550.179 267.531 551.002 267.654 551.718 267.899C552.445 268.145 553.054 268.525 553.546 269.037C554.048 269.54 554.427 270.186 554.684 270.977C554.94 271.768 555.069 272.708 555.069 273.798V285.196H552.087V273.766C552.087 272.794 551.932 272.04 551.622 271.506C551.323 270.961 550.895 270.582 550.34 270.368C549.795 270.144 549.143 270.031 548.384 270.031C547.732 270.031 547.155 270.144 546.653 270.368C546.15 270.592 545.728 270.902 545.386 271.298C545.044 271.682 544.782 272.126 544.601 272.628C544.43 273.131 544.344 273.665 544.344 274.231ZM567.341 285.517C566.133 285.517 565.038 285.314 564.055 284.907C563.082 284.491 562.243 283.908 561.538 283.16C560.843 282.412 560.309 281.525 559.935 280.499C559.561 279.473 559.374 278.351 559.374 277.133V276.46C559.374 275.049 559.582 273.793 559.999 272.692C560.416 271.581 560.982 270.641 561.698 269.871C562.414 269.102 563.226 268.519 564.135 268.124C565.043 267.728 565.984 267.531 566.956 267.531C568.196 267.531 569.265 267.744 570.162 268.172C571.071 268.599 571.813 269.198 572.39 269.967C572.968 270.726 573.395 271.624 573.673 272.66C573.951 273.686 574.09 274.808 574.09 276.027V277.357H561.137V274.937H571.124V274.712C571.081 273.943 570.921 273.195 570.643 272.468C570.376 271.741 569.949 271.143 569.361 270.673C568.773 270.202 567.971 269.967 566.956 269.967C566.283 269.967 565.663 270.112 565.097 270.4C564.53 270.678 564.044 271.095 563.638 271.65C563.232 272.206 562.917 272.885 562.692 273.686C562.468 274.488 562.355 275.412 562.355 276.46V277.133C562.355 277.956 562.468 278.73 562.692 279.457C562.927 280.173 563.264 280.804 563.702 281.349C564.151 281.894 564.691 282.321 565.321 282.631C565.962 282.941 566.689 283.096 567.501 283.096C568.549 283.096 569.436 282.882 570.162 282.455C570.889 282.027 571.525 281.456 572.07 280.74L573.865 282.166C573.491 282.733 573.016 283.272 572.439 283.785C571.861 284.298 571.151 284.715 570.307 285.036C569.473 285.356 568.484 285.517 567.341 285.517Z" fill="#202124"/>
<path fill-rule="evenodd" clip-rule="evenodd" d="M430.881 269.267H429.709V266.922C429.709 263.686 427.082 261.059 423.846 261.059C420.61 261.059 417.984 263.686 417.984 266.922V269.267H416.811C415.522 269.267 414.466 270.322 414.466 271.612V283.337C414.466 284.627 415.522 285.682 416.811 285.682H430.881C432.171 285.682 433.226 284.627 433.226 283.337V271.612C433.226 270.322 432.171 269.267 430.881 269.267ZM420.329 269.267V266.922C420.329 264.975 421.9 263.404 423.846 263.404C425.793 263.404 427.364 264.975 427.364 266.922V269.267H420.329Z" fill="#5F6368"/>
</g>
<g clip-path="url(#clip4_145_393)">
<path fill-rule="evenodd" clip-rule="evenodd" d="M334.737 262.011C334.309 261.952 333.859 262.076 333.513 262.388L321.162 273.566C320.544 274.126 320.494 275.08 321.05 275.701C321.611 276.326 322.573 276.377 323.196 275.813L324.123 274.974V287.095V287.788C324.123 289.083 325.173 290.133 326.468 290.133H327.145H342.256H342.933C344.228 290.133 345.278 289.083 345.278 287.788V287.095V274.908L346.279 275.813C346.901 276.377 347.864 276.326 348.424 275.701C348.981 275.08 348.931 274.126 348.312 273.566L335.961 262.388C335.616 262.076 335.165 261.952 334.737 262.011ZM327.512 271.907H331.835L327.512 271.907L334.737 265.368L341.963 271.907L342.256 272.172V274.252V276.498V276.597V276.597V282.405V285.443V285.542V287.095H340.692H340.588H337.566H331.835H328.813H328.71H327.145V285.542V285.443V282.405V276.597V276.597V276.498V274.252V272.239L327.512 271.907Z" fill="#5F6368"/>
<path fill-rule="evenodd" clip-rule="evenodd" d="M276.106 272.149V263.879C276.106 263.176 275.262 262.832 274.777 263.332L271.994 266.115C269.165 263.285 265.131 261.659 260.723 262.05C254.172 262.644 248.779 267.913 248.06 274.463C247.122 282.936 253.734 290.128 262.036 290.128C269.212 290.128 275.137 284.75 275.996 277.808C276.106 276.87 275.371 276.058 274.433 276.058C273.651 276.058 272.995 276.636 272.901 277.402C272.229 282.858 267.523 287.079 261.879 287.001C256.079 286.923 251.186 282.029 251.092 276.214C250.999 270.117 255.954 265.114 262.036 265.114C265.053 265.114 267.789 266.349 269.774 268.319L266.507 271.586C266.007 272.087 266.351 272.931 267.054 272.931H275.324C275.762 272.931 276.106 272.587 276.106 272.149Z" fill="#5F6368"/>
<path fill-rule="evenodd" clip-rule="evenodd" d="M177.081 277.509H197.253L188.44 286.322C187.736 287.026 187.736 288.182 188.44 288.886C189.145 289.591 190.282 289.591 190.987 288.886L202.887 276.986C203.592 276.281 203.592 275.144 202.887 274.439L191.005 262.521C190.3 261.816 189.163 261.816 188.458 262.521C187.754 263.225 187.754 264.363 188.458 265.067L197.253 273.898H177.081C176.088 273.898 175.275 274.71 175.275 275.704C175.275 276.697 176.088 277.509 177.081 277.509Z" fill="#BABCBE"/>
<path fill-rule="evenodd" clip-rule="evenodd" d="M128.915 273.898H108.743L117.556 265.085C118.26 264.381 118.26 263.225 117.556 262.521C116.852 261.816 115.714 261.816 115.01 262.521L103.109 274.422C102.404 275.126 102.404 276.264 103.109 276.968L115.01 288.869C115.714 289.573 116.852 289.573 117.556 288.869C118.26 288.164 118.26 287.027 117.556 286.322L108.743 277.51H128.915C129.908 277.51 130.721 276.697 130.721 275.704C130.721 274.71 129.908 273.898 128.915 273.898Z" fill="#5F6368"/>
</g>
</g>
<rect x="415.575" y="72.075" width="485.1" height="167.25" rx="29.925" fill="#F8F9FB" stroke="#C7C7C7" stroke-width="3.15"/>
<rect x="437.625" y="99.4607" width="441" height="118.564" rx="29.925" fill="#0095FF" fill-opacity="0.1" stroke="#0095FF" stroke-width="3.15"/>
<path d="M652.922 171.361H656.297C656.121 172.979 655.658 174.426 654.908 175.703C654.158 176.98 653.098 177.994 651.727 178.744C650.355 179.482 648.645 179.852 646.594 179.852C645.094 179.852 643.729 179.57 642.498 179.008C641.279 178.445 640.23 177.648 639.352 176.617C638.473 175.574 637.793 174.326 637.312 172.873C636.844 171.408 636.609 169.779 636.609 167.986V165.438C636.609 163.645 636.844 162.021 637.312 160.568C637.793 159.104 638.479 157.85 639.369 156.807C640.271 155.764 641.355 154.961 642.621 154.398C643.887 153.836 645.311 153.555 646.893 153.555C648.826 153.555 650.461 153.918 651.797 154.645C653.133 155.371 654.17 156.379 654.908 157.668C655.658 158.945 656.121 160.428 656.297 162.115H652.922C652.758 160.92 652.453 159.895 652.008 159.039C651.562 158.172 650.93 157.504 650.109 157.035C649.289 156.566 648.217 156.332 646.893 156.332C645.756 156.332 644.754 156.549 643.887 156.982C643.031 157.416 642.311 158.031 641.725 158.828C641.15 159.625 640.717 160.58 640.424 161.693C640.131 162.807 639.984 164.043 639.984 165.402V167.986C639.984 169.24 640.113 170.418 640.371 171.52C640.641 172.621 641.045 173.588 641.584 174.42C642.123 175.252 642.809 175.908 643.641 176.389C644.473 176.857 645.457 177.092 646.594 177.092C648.035 177.092 649.184 176.863 650.039 176.406C650.895 175.949 651.539 175.293 651.973 174.438C652.418 173.582 652.734 172.557 652.922 171.361ZM671.643 176.248V166.457C671.643 165.707 671.49 165.057 671.186 164.506C670.893 163.943 670.447 163.51 669.85 163.205C669.252 162.9 668.514 162.748 667.635 162.748C666.814 162.748 666.094 162.889 665.473 163.17C664.863 163.451 664.383 163.82 664.031 164.277C663.691 164.734 663.521 165.227 663.521 165.754H660.27C660.27 165.074 660.445 164.4 660.797 163.732C661.148 163.064 661.652 162.461 662.309 161.922C662.977 161.371 663.773 160.938 664.699 160.621C665.637 160.293 666.68 160.129 667.828 160.129C669.211 160.129 670.43 160.363 671.484 160.832C672.551 161.301 673.383 162.01 673.98 162.959C674.59 163.896 674.895 165.074 674.895 166.492V175.352C674.895 175.984 674.947 176.658 675.053 177.373C675.17 178.088 675.34 178.703 675.562 179.219V179.5H672.17C672.006 179.125 671.877 178.627 671.783 178.006C671.689 177.373 671.643 176.787 671.643 176.248ZM672.205 167.969L672.24 170.254H668.953C668.027 170.254 667.201 170.33 666.475 170.482C665.748 170.623 665.139 170.84 664.646 171.133C664.154 171.426 663.779 171.795 663.521 172.24C663.264 172.674 663.135 173.184 663.135 173.77C663.135 174.367 663.27 174.912 663.539 175.404C663.809 175.896 664.213 176.289 664.752 176.582C665.303 176.863 665.977 177.004 666.773 177.004C667.77 177.004 668.648 176.793 669.41 176.371C670.172 175.949 670.775 175.434 671.221 174.824C671.678 174.215 671.924 173.623 671.959 173.049L673.348 174.613C673.266 175.105 673.043 175.65 672.68 176.248C672.316 176.846 671.83 177.42 671.221 177.971C670.623 178.51 669.908 178.961 669.076 179.324C668.256 179.676 667.33 179.852 666.299 179.852C665.01 179.852 663.879 179.6 662.906 179.096C661.945 178.592 661.195 177.918 660.656 177.074C660.129 176.219 659.865 175.264 659.865 174.209C659.865 173.189 660.064 172.293 660.463 171.52C660.861 170.734 661.436 170.084 662.186 169.568C662.936 169.041 663.838 168.643 664.893 168.373C665.947 168.104 667.125 167.969 668.426 167.969H672.205ZM683.262 164.541V179.5H680.01V160.48H683.086L683.262 164.541ZM682.488 169.27L681.135 169.217C681.146 167.916 681.34 166.715 681.715 165.613C682.09 164.5 682.617 163.533 683.297 162.713C683.977 161.893 684.785 161.26 685.723 160.814C686.672 160.357 687.721 160.129 688.869 160.129C689.807 160.129 690.65 160.258 691.4 160.516C692.15 160.762 692.789 161.16 693.316 161.711C693.855 162.262 694.266 162.977 694.547 163.855C694.828 164.723 694.969 165.783 694.969 167.037V179.5H691.699V167.002C691.699 166.006 691.553 165.209 691.26 164.611C690.967 164.002 690.539 163.562 689.977 163.293C689.414 163.012 688.723 162.871 687.902 162.871C687.094 162.871 686.355 163.041 685.688 163.381C685.031 163.721 684.463 164.189 683.982 164.787C683.514 165.385 683.145 166.07 682.875 166.844C682.617 167.605 682.488 168.414 682.488 169.27ZM711.123 176.248V166.457C711.123 165.707 710.971 165.057 710.666 164.506C710.373 163.943 709.928 163.51 709.33 163.205C708.732 162.9 707.994 162.748 707.115 162.748C706.295 162.748 705.574 162.889 704.953 163.17C704.344 163.451 703.863 163.82 703.512 164.277C703.172 164.734 703.002 165.227 703.002 165.754H699.75C699.75 165.074 699.926 164.4 700.277 163.732C700.629 163.064 701.133 162.461 701.789 161.922C702.457 161.371 703.254 160.938 704.18 160.621C705.117 160.293 706.16 160.129 707.309 160.129C708.691 160.129 709.91 160.363 710.965 160.832C712.031 161.301 712.863 162.01 713.461 162.959C714.07 163.896 714.375 165.074 714.375 166.492V175.352C714.375 175.984 714.428 176.658 714.533 177.373C714.65 178.088 714.82 178.703 715.043 179.219V179.5H711.65C711.486 179.125 711.357 178.627 711.264 178.006C711.17 177.373 711.123 176.787 711.123 176.248ZM711.686 167.969L711.721 170.254H708.434C707.508 170.254 706.682 170.33 705.955 170.482C705.229 170.623 704.619 170.84 704.127 171.133C703.635 171.426 703.26 171.795 703.002 172.24C702.744 172.674 702.615 173.184 702.615 173.77C702.615 174.367 702.75 174.912 703.02 175.404C703.289 175.896 703.693 176.289 704.232 176.582C704.783 176.863 705.457 177.004 706.254 177.004C707.25 177.004 708.129 176.793 708.891 176.371C709.652 175.949 710.256 175.434 710.701 174.824C711.158 174.215 711.404 173.623 711.439 173.049L712.828 174.613C712.746 175.105 712.523 175.65 712.16 176.248C711.797 176.846 711.311 177.42 710.701 177.971C710.104 178.51 709.389 178.961 708.557 179.324C707.736 179.676 706.811 179.852 705.779 179.852C704.49 179.852 703.359 179.6 702.387 179.096C701.426 178.592 700.676 177.918 700.137 177.074C699.609 176.219 699.346 175.264 699.346 174.209C699.346 173.189 699.545 172.293 699.943 171.52C700.342 170.734 700.916 170.084 701.666 169.568C702.416 169.041 703.318 168.643 704.373 168.373C705.428 168.104 706.605 167.969 707.906 167.969H711.686ZM731.479 175.809V152.5H734.748V179.5H731.76L731.479 175.809ZM718.682 170.201V169.832C718.682 168.379 718.857 167.061 719.209 165.877C719.572 164.682 720.082 163.656 720.738 162.801C721.406 161.945 722.197 161.289 723.111 160.832C724.037 160.363 725.068 160.129 726.205 160.129C727.4 160.129 728.443 160.34 729.334 160.762C730.236 161.172 730.998 161.775 731.619 162.572C732.252 163.357 732.75 164.307 733.113 165.42C733.477 166.533 733.729 167.793 733.869 169.199V170.816C733.74 172.211 733.488 173.465 733.113 174.578C732.75 175.691 732.252 176.641 731.619 177.426C730.998 178.211 730.236 178.814 729.334 179.236C728.432 179.646 727.377 179.852 726.17 179.852C725.057 179.852 724.037 179.611 723.111 179.131C722.197 178.65 721.406 177.977 720.738 177.109C720.082 176.242 719.572 175.223 719.209 174.051C718.857 172.867 718.682 171.584 718.682 170.201ZM721.951 169.832V170.201C721.951 171.15 722.045 172.041 722.232 172.873C722.432 173.705 722.736 174.438 723.146 175.07C723.557 175.703 724.078 176.201 724.711 176.564C725.344 176.916 726.1 177.092 726.979 177.092C728.057 177.092 728.941 176.863 729.633 176.406C730.336 175.949 730.898 175.346 731.32 174.596C731.742 173.846 732.07 173.031 732.305 172.152V167.916C732.164 167.271 731.959 166.65 731.689 166.053C731.432 165.443 731.092 164.904 730.67 164.436C730.26 163.955 729.75 163.574 729.141 163.293C728.543 163.012 727.834 162.871 727.014 162.871C726.123 162.871 725.355 163.059 724.711 163.434C724.078 163.797 723.557 164.301 723.146 164.945C722.736 165.578 722.432 166.316 722.232 167.16C722.045 167.992 721.951 168.883 721.951 169.832ZM751.025 176.248V166.457C751.025 165.707 750.873 165.057 750.568 164.506C750.275 163.943 749.83 163.51 749.232 163.205C748.635 162.9 747.896 162.748 747.018 162.748C746.197 162.748 745.477 162.889 744.855 163.17C744.246 163.451 743.766 163.82 743.414 164.277C743.074 164.734 742.904 165.227 742.904 165.754H739.652C739.652 165.074 739.828 164.4 740.18 163.732C740.531 163.064 741.035 162.461 741.691 161.922C742.359 161.371 743.156 160.938 744.082 160.621C745.02 160.293 746.062 160.129 747.211 160.129C748.594 160.129 749.812 160.363 750.867 160.832C751.934 161.301 752.766 162.01 753.363 162.959C753.973 163.896 754.277 165.074 754.277 166.492V175.352C754.277 175.984 754.33 176.658 754.436 177.373C754.553 178.088 754.723 178.703 754.945 179.219V179.5H751.553C751.389 179.125 751.26 178.627 751.166 178.006C751.072 177.373 751.025 176.787 751.025 176.248ZM751.588 167.969L751.623 170.254H748.336C747.41 170.254 746.584 170.33 745.857 170.482C745.131 170.623 744.521 170.84 744.029 171.133C743.537 171.426 743.162 171.795 742.904 172.24C742.646 172.674 742.518 173.184 742.518 173.77C742.518 174.367 742.652 174.912 742.922 175.404C743.191 175.896 743.596 176.289 744.135 176.582C744.686 176.863 745.359 177.004 746.156 177.004C747.152 177.004 748.031 176.793 748.793 176.371C749.555 175.949 750.158 175.434 750.604 174.824C751.061 174.215 751.307 173.623 751.342 173.049L752.73 174.613C752.648 175.105 752.426 175.65 752.062 176.248C751.699 176.846 751.213 177.42 750.604 177.971C750.006 178.51 749.291 178.961 748.459 179.324C747.639 179.676 746.713 179.852 745.682 179.852C744.393 179.852 743.262 179.6 742.289 179.096C741.328 178.592 740.578 177.918 740.039 177.074C739.512 176.219 739.248 175.264 739.248 174.209C739.248 173.189 739.447 172.293 739.846 171.52C740.244 170.734 740.818 170.084 741.568 169.568C742.318 169.041 743.221 168.643 744.275 168.373C745.33 168.104 746.508 167.969 747.809 167.969H751.588Z" fill="#E53950"/>
<path d="M644.77 209.311V201.968C644.77 201.405 644.656 200.917 644.427 200.504C644.208 200.083 643.874 199.757 643.425 199.529C642.977 199.3 642.423 199.186 641.764 199.186C641.149 199.186 640.608 199.292 640.143 199.502C639.686 199.713 639.325 199.99 639.062 200.333C638.807 200.676 638.679 201.045 638.679 201.44H636.24C636.24 200.931 636.372 200.425 636.636 199.924C636.899 199.423 637.277 198.971 637.77 198.566C638.271 198.153 638.868 197.828 639.562 197.591C640.266 197.345 641.048 197.222 641.909 197.222C642.946 197.222 643.86 197.397 644.651 197.749C645.451 198.101 646.075 198.632 646.523 199.344C646.98 200.047 647.209 200.931 647.209 201.994V208.639C647.209 209.113 647.249 209.619 647.328 210.155C647.416 210.691 647.543 211.152 647.71 211.539V211.75H645.166C645.042 211.469 644.946 211.095 644.875 210.629C644.805 210.155 644.77 209.715 644.77 209.311ZM645.192 203.102L645.218 204.815H642.753C642.059 204.815 641.439 204.873 640.894 204.987C640.349 205.092 639.892 205.255 639.523 205.475C639.154 205.694 638.873 205.971 638.679 206.305C638.486 206.63 638.389 207.013 638.389 207.452C638.389 207.9 638.49 208.309 638.692 208.678C638.895 209.047 639.198 209.342 639.602 209.562C640.015 209.772 640.521 209.878 641.118 209.878C641.865 209.878 642.524 209.72 643.096 209.403C643.667 209.087 644.12 208.7 644.454 208.243C644.796 207.786 644.981 207.342 645.007 206.912L646.049 208.085C645.987 208.454 645.82 208.863 645.548 209.311C645.275 209.759 644.911 210.19 644.454 210.603C644.005 211.007 643.469 211.346 642.845 211.618C642.23 211.882 641.536 212.014 640.762 212.014C639.795 212.014 638.947 211.825 638.218 211.447C637.497 211.069 636.935 210.563 636.53 209.931C636.135 209.289 635.937 208.573 635.937 207.782C635.937 207.017 636.086 206.345 636.385 205.765C636.684 205.176 637.115 204.688 637.677 204.301C638.24 203.906 638.917 203.607 639.708 203.405C640.499 203.203 641.382 203.102 642.357 203.102H645.192ZM653.484 199.727V211.75H651.045V197.485H653.418L653.484 199.727ZM657.94 197.406L657.927 199.674C657.725 199.63 657.532 199.604 657.347 199.595C657.171 199.577 656.969 199.568 656.741 199.568C656.178 199.568 655.682 199.656 655.251 199.832C654.82 200.008 654.456 200.254 654.157 200.57C653.858 200.887 653.621 201.265 653.445 201.704C653.278 202.135 653.168 202.609 653.115 203.128L652.43 203.523C652.43 202.662 652.513 201.854 652.68 201.098C652.856 200.342 653.124 199.674 653.484 199.094C653.845 198.505 654.302 198.048 654.855 197.723C655.418 197.389 656.086 197.222 656.859 197.222C657.035 197.222 657.237 197.244 657.466 197.288C657.694 197.323 657.853 197.362 657.94 197.406ZM662.634 200.228V217.234H660.182V197.485H662.423L662.634 200.228ZM672.245 204.499V204.776C672.245 205.813 672.122 206.775 671.875 207.663C671.629 208.542 671.269 209.307 670.794 209.957C670.329 210.607 669.753 211.113 669.067 211.473C668.382 211.833 667.595 212.014 666.708 212.014C665.802 212.014 665.002 211.864 664.308 211.565C663.614 211.267 663.025 210.832 662.542 210.26C662.058 209.689 661.671 209.003 661.381 208.204C661.1 207.404 660.907 206.503 660.801 205.501V204.024C660.907 202.97 661.104 202.025 661.395 201.19C661.685 200.355 662.067 199.643 662.542 199.054C663.025 198.457 663.609 198.004 664.295 197.696C664.98 197.38 665.771 197.222 666.668 197.222C667.564 197.222 668.36 197.397 669.054 197.749C669.749 198.092 670.333 198.584 670.808 199.226C671.282 199.867 671.638 200.636 671.875 201.533C672.122 202.42 672.245 203.409 672.245 204.499ZM669.792 204.776V204.499C669.792 203.787 669.718 203.119 669.568 202.495C669.419 201.862 669.186 201.309 668.87 200.834C668.562 200.351 668.167 199.973 667.683 199.7C667.2 199.419 666.624 199.278 665.956 199.278C665.341 199.278 664.805 199.384 664.348 199.595C663.899 199.806 663.517 200.091 663.201 200.452C662.884 200.803 662.625 201.208 662.423 201.665C662.229 202.113 662.084 202.579 661.988 203.062V206.477C662.164 207.092 662.41 207.672 662.726 208.217C663.042 208.753 663.464 209.188 663.992 209.522C664.519 209.847 665.183 210.01 665.982 210.01C666.642 210.01 667.208 209.874 667.683 209.601C668.167 209.32 668.562 208.938 668.87 208.454C669.186 207.971 669.419 207.417 669.568 206.793C669.718 206.16 669.792 205.488 669.792 204.776ZM683.767 209.311V201.968C683.767 201.405 683.653 200.917 683.424 200.504C683.205 200.083 682.871 199.757 682.422 199.529C681.974 199.3 681.42 199.186 680.761 199.186C680.146 199.186 679.605 199.292 679.14 199.502C678.683 199.713 678.322 199.99 678.059 200.333C677.804 200.676 677.676 201.045 677.676 201.44H675.237C675.237 200.931 675.369 200.425 675.633 199.924C675.896 199.423 676.274 198.971 676.767 198.566C677.268 198.153 677.865 197.828 678.56 197.591C679.263 197.345 680.045 197.222 680.906 197.222C681.943 197.222 682.857 197.397 683.648 197.749C684.448 198.101 685.072 198.632 685.521 199.344C685.978 200.047 686.206 200.931 686.206 201.994V208.639C686.206 209.113 686.246 209.619 686.325 210.155C686.413 210.691 686.54 211.152 686.707 211.539V211.75H684.163C684.04 211.469 683.943 211.095 683.873 210.629C683.802 210.155 683.767 209.715 683.767 209.311ZM684.189 203.102L684.215 204.815H681.75C681.056 204.815 680.436 204.873 679.891 204.987C679.346 205.092 678.889 205.255 678.52 205.475C678.151 205.694 677.87 205.971 677.676 206.305C677.483 206.63 677.386 207.013 677.386 207.452C677.386 207.9 677.487 208.309 677.689 208.678C677.892 209.047 678.195 209.342 678.599 209.562C679.012 209.772 679.518 209.878 680.115 209.878C680.862 209.878 681.521 209.72 682.093 209.403C682.664 209.087 683.117 208.7 683.451 208.243C683.793 207.786 683.978 207.342 684.004 206.912L685.046 208.085C684.984 208.454 684.817 208.863 684.545 209.311C684.272 209.759 683.908 210.19 683.451 210.603C683.002 211.007 682.466 211.346 681.842 211.618C681.227 211.882 680.533 212.014 679.759 212.014C678.792 212.014 677.944 211.825 677.215 211.447C676.494 211.069 675.932 210.563 675.527 209.931C675.132 209.289 674.934 208.573 674.934 207.782C674.934 207.017 675.083 206.345 675.382 205.765C675.681 205.176 676.112 204.688 676.674 204.301C677.237 203.906 677.914 203.607 678.705 203.405C679.496 203.203 680.379 203.102 681.354 203.102H684.189ZM695.118 202.587V204.591H688.685V202.587H695.118ZM700.326 202.614L698.375 202.113L699.337 192.555H709.185V194.809H701.407L700.827 200.03C701.178 199.828 701.622 199.639 702.158 199.463C702.703 199.287 703.327 199.199 704.03 199.199C704.918 199.199 705.713 199.353 706.417 199.661C707.12 199.959 707.717 200.39 708.209 200.953C708.71 201.515 709.093 202.192 709.356 202.983C709.62 203.774 709.752 204.657 709.752 205.633C709.752 206.556 709.625 207.404 709.37 208.177C709.124 208.951 708.75 209.627 708.249 210.208C707.748 210.779 707.115 211.223 706.351 211.539C705.595 211.855 704.703 212.014 703.674 212.014C702.901 212.014 702.167 211.908 701.473 211.697C700.787 211.478 700.172 211.148 699.627 210.708C699.091 210.26 698.651 209.707 698.309 209.047C697.975 208.379 697.764 207.597 697.676 206.701H699.996C700.102 207.421 700.312 208.028 700.629 208.52C700.945 209.012 701.358 209.386 701.868 209.641C702.387 209.887 702.989 210.01 703.674 210.01C704.254 210.01 704.769 209.909 705.217 209.707C705.665 209.504 706.043 209.214 706.351 208.836C706.658 208.458 706.891 208.001 707.049 207.465C707.216 206.929 707.3 206.327 707.3 205.659C707.3 205.053 707.216 204.49 707.049 203.972C706.882 203.453 706.632 203 706.298 202.614C705.973 202.227 705.573 201.928 705.098 201.717C704.624 201.498 704.079 201.388 703.463 201.388C702.646 201.388 702.026 201.498 701.604 201.717C701.191 201.937 700.765 202.236 700.326 202.614ZM724.478 200.623V203.55C724.478 205.123 724.337 206.45 724.056 207.531C723.775 208.612 723.371 209.482 722.843 210.142C722.316 210.801 721.679 211.28 720.932 211.579C720.193 211.869 719.358 212.014 718.427 212.014C717.688 212.014 717.007 211.921 716.383 211.737C715.759 211.552 715.197 211.258 714.696 210.854C714.204 210.44 713.782 209.904 713.43 209.245C713.079 208.586 712.811 207.786 712.626 206.846C712.441 205.905 712.349 204.807 712.349 203.55V200.623C712.349 199.05 712.49 197.731 712.771 196.668C713.061 195.604 713.47 194.752 713.997 194.11C714.524 193.46 715.157 192.994 715.896 192.713C716.643 192.432 717.478 192.291 718.4 192.291C719.147 192.291 719.833 192.383 720.457 192.568C721.09 192.744 721.652 193.029 722.145 193.425C722.637 193.812 723.054 194.33 723.397 194.98C723.749 195.622 724.017 196.409 724.201 197.34C724.386 198.272 724.478 199.366 724.478 200.623ZM722.026 203.945V200.214C722.026 199.353 721.973 198.597 721.868 197.947C721.771 197.288 721.626 196.725 721.433 196.259C721.239 195.793 720.993 195.416 720.694 195.125C720.404 194.835 720.066 194.625 719.679 194.493C719.301 194.352 718.875 194.282 718.4 194.282C717.82 194.282 717.306 194.392 716.858 194.611C716.41 194.822 716.032 195.161 715.724 195.626C715.425 196.092 715.197 196.703 715.039 197.459C714.88 198.215 714.801 199.133 714.801 200.214V203.945C714.801 204.807 714.85 205.567 714.946 206.226C715.052 206.885 715.206 207.457 715.408 207.94C715.61 208.415 715.856 208.806 716.146 209.113C716.436 209.421 716.77 209.649 717.148 209.799C717.535 209.939 717.961 210.01 718.427 210.01C719.024 210.01 719.547 209.896 719.996 209.667C720.444 209.438 720.817 209.083 721.116 208.599C721.424 208.107 721.652 207.479 721.802 206.714C721.951 205.94 722.026 205.018 722.026 203.945ZM732.955 202.587V204.591H726.521V202.587H732.955ZM743.093 192.449V211.75H740.654V195.495L735.737 197.288V195.086L742.711 192.449H743.093ZM762.315 200.623V203.55C762.315 205.123 762.174 206.45 761.893 207.531C761.612 208.612 761.208 209.482 760.68 210.142C760.153 210.801 759.516 211.28 758.769 211.579C758.03 211.869 757.195 212.014 756.264 212.014C755.525 212.014 754.844 211.921 754.22 211.737C753.596 211.552 753.034 211.258 752.533 210.854C752.041 210.44 751.619 209.904 751.267 209.245C750.916 208.586 750.647 207.786 750.463 206.846C750.278 205.905 750.186 204.807 750.186 203.55V200.623C750.186 199.05 750.327 197.731 750.608 196.668C750.898 195.604 751.307 194.752 751.834 194.11C752.361 193.46 752.994 192.994 753.732 192.713C754.479 192.432 755.314 192.291 756.237 192.291C756.984 192.291 757.67 192.383 758.294 192.568C758.927 192.744 759.489 193.029 759.981 193.425C760.474 193.812 760.891 194.33 761.234 194.98C761.585 195.622 761.854 196.409 762.038 197.34C762.223 198.272 762.315 199.366 762.315 200.623ZM759.863 203.945V200.214C759.863 199.353 759.81 198.597 759.705 197.947C759.608 197.288 759.463 196.725 759.27 196.259C759.076 195.793 758.83 195.416 758.531 195.125C758.241 194.835 757.903 194.625 757.516 194.493C757.138 194.352 756.712 194.282 756.237 194.282C755.657 194.282 755.143 194.392 754.695 194.611C754.247 194.822 753.869 195.161 753.561 195.626C753.262 196.092 753.034 196.703 752.875 197.459C752.717 198.215 752.638 199.133 752.638 200.214V203.945C752.638 204.807 752.687 205.567 752.783 206.226C752.889 206.885 753.042 207.457 753.245 207.94C753.447 208.415 753.693 208.806 753.983 209.113C754.273 209.421 754.607 209.649 754.985 209.799C755.372 209.939 755.798 210.01 756.264 210.01C756.861 210.01 757.384 209.896 757.833 209.667C758.281 209.438 758.654 209.083 758.953 208.599C759.261 208.107 759.489 207.479 759.639 206.714C759.788 205.94 759.863 205.018 759.863 203.945ZM777.502 200.623V203.55C777.502 205.123 777.362 206.45 777.081 207.531C776.799 208.612 776.395 209.482 775.868 210.142C775.34 210.801 774.703 211.28 773.956 211.579C773.218 211.869 772.383 212.014 771.451 212.014C770.713 212.014 770.032 211.921 769.408 211.737C768.784 211.552 768.221 211.258 767.72 210.854C767.228 210.44 766.806 209.904 766.455 209.245C766.103 208.586 765.835 207.786 765.65 206.846C765.466 205.905 765.374 204.807 765.374 203.55V200.623C765.374 199.05 765.514 197.731 765.795 196.668C766.085 195.604 766.494 194.752 767.021 194.11C767.549 193.46 768.182 192.994 768.92 192.713C769.667 192.432 770.502 192.291 771.425 192.291C772.172 192.291 772.857 192.383 773.481 192.568C774.114 192.744 774.677 193.029 775.169 193.425C775.661 193.812 776.079 194.33 776.421 194.98C776.773 195.622 777.041 196.409 777.226 197.34C777.41 198.272 777.502 199.366 777.502 200.623ZM775.05 203.945V200.214C775.05 199.353 774.998 198.597 774.892 197.947C774.795 197.288 774.65 196.725 774.457 196.259C774.264 195.793 774.018 195.416 773.719 195.125C773.429 194.835 773.09 194.625 772.704 194.493C772.326 194.352 771.899 194.282 771.425 194.282C770.845 194.282 770.331 194.392 769.882 194.611C769.434 194.822 769.056 195.161 768.749 195.626C768.45 196.092 768.221 196.703 768.063 197.459C767.905 198.215 767.826 199.133 767.826 200.214V203.945C767.826 204.807 767.874 205.567 767.971 206.226C768.076 206.885 768.23 207.457 768.432 207.94C768.634 208.415 768.88 208.806 769.17 209.113C769.46 209.421 769.794 209.649 770.172 209.799C770.559 209.939 770.985 210.01 771.451 210.01C772.049 210.01 772.572 209.896 773.02 209.667C773.468 209.438 773.842 209.083 774.141 208.599C774.448 208.107 774.677 207.479 774.826 206.714C774.976 205.94 775.05 205.018 775.05 203.945ZM785.979 202.587V204.591H779.546V202.587H785.979ZM791.187 202.614L789.236 202.113L790.198 192.555H800.046V194.809H792.268L791.688 200.03C792.04 199.828 792.483 199.639 793.02 199.463C793.564 199.287 794.188 199.199 794.892 199.199C795.779 199.199 796.575 199.353 797.278 199.661C797.981 199.959 798.579 200.39 799.071 200.953C799.572 201.515 799.954 202.192 800.218 202.983C800.481 203.774 800.613 204.657 800.613 205.633C800.613 206.556 800.486 207.404 800.231 208.177C799.985 208.951 799.611 209.627 799.11 210.208C798.609 210.779 797.977 211.223 797.212 211.539C796.456 211.855 795.564 212.014 794.536 212.014C793.762 212.014 793.028 211.908 792.334 211.697C791.648 211.478 791.033 211.148 790.488 210.708C789.952 210.26 789.513 209.707 789.17 209.047C788.836 208.379 788.625 207.597 788.537 206.701H790.857C790.963 207.421 791.174 208.028 791.49 208.52C791.807 209.012 792.22 209.386 792.729 209.641C793.248 209.887 793.85 210.01 794.536 210.01C795.116 210.01 795.63 209.909 796.078 209.707C796.526 209.504 796.904 209.214 797.212 208.836C797.52 208.458 797.752 208.001 797.911 207.465C798.078 206.929 798.161 206.327 798.161 205.659C798.161 205.053 798.078 204.49 797.911 203.972C797.744 203.453 797.493 203 797.159 202.614C796.834 202.227 796.434 201.928 795.959 201.717C795.485 201.498 794.94 201.388 794.325 201.388C793.507 201.388 792.888 201.498 792.466 201.717C792.053 201.937 791.626 202.236 791.187 202.614ZM815.339 200.623V203.55C815.339 205.123 815.199 206.45 814.917 207.531C814.636 208.612 814.232 209.482 813.705 210.142C813.177 210.801 812.54 211.28 811.793 211.579C811.055 211.869 810.22 212.014 809.288 212.014C808.55 212.014 807.869 211.921 807.245 211.737C806.621 211.552 806.058 211.258 805.557 210.854C805.065 210.44 804.643 209.904 804.292 209.245C803.94 208.586 803.672 207.786 803.487 206.846C803.303 205.905 803.21 204.807 803.21 203.55V200.623C803.21 199.05 803.351 197.731 803.632 196.668C803.922 195.604 804.331 194.752 804.858 194.11C805.386 193.46 806.019 192.994 806.757 192.713C807.504 192.432 808.339 192.291 809.262 192.291C810.009 192.291 810.694 192.383 811.318 192.568C811.951 192.744 812.514 193.029 813.006 193.425C813.498 193.812 813.916 194.33 814.258 194.98C814.61 195.622 814.878 196.409 815.062 197.34C815.247 198.272 815.339 199.366 815.339 200.623ZM812.887 203.945V200.214C812.887 199.353 812.834 198.597 812.729 197.947C812.632 197.288 812.487 196.725 812.294 196.259C812.101 195.793 811.854 195.416 811.556 195.125C811.266 194.835 810.927 194.625 810.541 194.493C810.163 194.352 809.736 194.282 809.262 194.282C808.682 194.282 808.167 194.392 807.719 194.611C807.271 194.822 806.893 195.161 806.585 195.626C806.287 196.092 806.058 196.703 805.9 197.459C805.742 198.215 805.663 199.133 805.663 200.214V203.945C805.663 204.807 805.711 205.567 805.808 206.226C805.913 206.885 806.067 207.457 806.269 207.94C806.471 208.415 806.717 208.806 807.007 209.113C807.297 209.421 807.631 209.649 808.009 209.799C808.396 209.939 808.822 210.01 809.288 210.01C809.886 210.01 810.409 209.896 810.857 209.667C811.305 209.438 811.679 209.083 811.978 208.599C812.285 208.107 812.514 207.479 812.663 206.714C812.812 205.94 812.887 205.018 812.887 203.945ZM823.816 202.587V204.591H817.383V202.587H823.816ZM833.955 192.449V211.75H831.516V195.495L826.598 197.288V195.086L833.572 192.449H833.955ZM853.176 200.623V203.55C853.176 205.123 853.036 206.45 852.754 207.531C852.473 208.612 852.069 209.482 851.542 210.142C851.014 210.801 850.377 211.28 849.63 211.579C848.892 211.869 848.057 212.014 847.125 212.014C846.387 212.014 845.706 211.921 845.082 211.737C844.458 211.552 843.895 211.258 843.394 210.854C842.902 210.44 842.48 209.904 842.128 209.245C841.777 208.586 841.509 207.786 841.324 206.846C841.14 205.905 841.047 204.807 841.047 203.55V200.623C841.047 199.05 841.188 197.731 841.469 196.668C841.759 195.604 842.168 194.752 842.695 194.11C843.223 193.46 843.855 192.994 844.594 192.713C845.341 192.432 846.176 192.291 847.099 192.291C847.846 192.291 848.531 192.383 849.155 192.568C849.788 192.744 850.351 193.029 850.843 193.425C851.335 193.812 851.752 194.33 852.095 194.98C852.447 195.622 852.715 196.409 852.899 197.34C853.084 198.272 853.176 199.366 853.176 200.623ZM850.724 203.945V200.214C850.724 199.353 850.671 198.597 850.566 197.947C850.469 197.288 850.324 196.725 850.131 196.259C849.938 195.793 849.691 195.416 849.393 195.125C849.103 194.835 848.764 194.625 848.377 194.493C848 194.352 847.573 194.282 847.099 194.282C846.519 194.282 846.004 194.392 845.556 194.611C845.108 194.822 844.73 195.161 844.422 195.626C844.124 196.092 843.895 196.703 843.737 197.459C843.579 198.215 843.5 199.133 843.5 200.214V203.945C843.5 204.807 843.548 205.567 843.645 206.226C843.75 206.885 843.904 207.457 844.106 207.94C844.308 208.415 844.554 208.806 844.844 209.113C845.134 209.421 845.468 209.649 845.846 209.799C846.233 209.939 846.659 210.01 847.125 210.01C847.723 210.01 848.246 209.896 848.694 209.667C849.142 209.438 849.516 209.083 849.814 208.599C850.122 208.107 850.351 207.479 850.5 206.714C850.649 205.94 850.724 205.018 850.724 203.945Z" fill="black"/>
<g clip-path="url(#clip5_145_393)">
<path d="M499.948 108H587.527V210H499.922L499.948 108Z" fill="white"/>
<path d="M456.171 108H499.947V210H456.171V108ZM587.526 108H631.303V210H587.552L587.526 108ZM513.07 157.3L509.641 158.235L525.471 169.71C526.683 172.621 525.058 173.493 524.027 175.023L541.197 173.238L540.785 187.475L544.369 187.411L543.569 173.259L560.765 174.959C559.708 173.11 558.754 172.133 559.734 169.179L575.538 158.341L572.779 157.491C570.511 156.046 573.759 150.564 574.223 147.1C574.223 147.1 565.019 149.714 564.426 148.333L562.054 144.614L553.65 152.221C552.747 152.413 552.361 152.115 552.129 151.478L555.996 135.583L549.86 138.43C549.344 138.621 548.829 138.451 548.519 137.963L542.59 128.188L536.505 138.345C536.041 138.706 535.577 138.749 535.216 138.494L529.312 135.795L532.844 151.541C532.561 152.179 531.89 152.349 531.117 152.009L523.073 144.508C522.042 145.889 521.32 148.141 519.928 148.651C518.536 149.14 513.869 147.695 510.75 147.164C511.833 150.309 515.133 155.579 513.07 157.3Z" fill="#D52B1E"/>
</g>
<path d="M640.74 130.568L638.139 129.9L639.422 117.156H652.553V120.162H642.182L641.408 127.123C641.877 126.854 642.469 126.602 643.184 126.367C643.91 126.133 644.742 126.016 645.68 126.016C646.863 126.016 647.924 126.221 648.861 126.631C649.799 127.029 650.596 127.604 651.252 128.354C651.92 129.104 652.43 130.006 652.781 131.061C653.133 132.115 653.309 133.293 653.309 134.594C653.309 135.824 653.139 136.955 652.799 137.986C652.471 139.018 651.973 139.92 651.305 140.693C650.637 141.455 649.793 142.047 648.773 142.469C647.766 142.891 646.576 143.102 645.205 143.102C644.174 143.102 643.195 142.961 642.27 142.68C641.355 142.387 640.535 141.947 639.809 141.361C639.094 140.764 638.508 140.025 638.051 139.146C637.605 138.256 637.324 137.213 637.207 136.018H640.301C640.441 136.979 640.723 137.787 641.145 138.443C641.566 139.1 642.117 139.598 642.797 139.938C643.488 140.266 644.291 140.43 645.205 140.43C645.979 140.43 646.664 140.295 647.262 140.025C647.859 139.756 648.363 139.369 648.773 138.865C649.184 138.361 649.494 137.752 649.705 137.037C649.928 136.322 650.039 135.52 650.039 134.629C650.039 133.82 649.928 133.07 649.705 132.379C649.482 131.688 649.148 131.084 648.703 130.568C648.27 130.053 647.736 129.654 647.104 129.373C646.471 129.08 645.744 128.934 644.924 128.934C643.834 128.934 643.008 129.08 642.445 129.373C641.895 129.666 641.326 130.064 640.74 130.568ZM672.943 127.914V131.816C672.943 133.914 672.756 135.684 672.381 137.125C672.006 138.566 671.467 139.727 670.764 140.605C670.061 141.484 669.211 142.123 668.215 142.521C667.23 142.908 666.117 143.102 664.875 143.102C663.891 143.102 662.982 142.979 662.15 142.732C661.318 142.486 660.568 142.094 659.9 141.555C659.244 141.004 658.682 140.289 658.213 139.41C657.744 138.531 657.387 137.465 657.141 136.211C656.895 134.957 656.771 133.492 656.771 131.816V127.914C656.771 125.816 656.959 124.059 657.334 122.641C657.721 121.223 658.266 120.086 658.969 119.23C659.672 118.363 660.516 117.742 661.5 117.367C662.496 116.992 663.609 116.805 664.84 116.805C665.836 116.805 666.75 116.928 667.582 117.174C668.426 117.408 669.176 117.789 669.832 118.316C670.488 118.832 671.045 119.523 671.502 120.391C671.971 121.246 672.328 122.295 672.574 123.537C672.82 124.779 672.943 126.238 672.943 127.914ZM669.674 132.344V127.369C669.674 126.221 669.604 125.213 669.463 124.346C669.334 123.467 669.141 122.717 668.883 122.096C668.625 121.475 668.297 120.971 667.898 120.584C667.512 120.197 667.061 119.916 666.545 119.74C666.041 119.553 665.473 119.459 664.84 119.459C664.066 119.459 663.381 119.605 662.783 119.898C662.186 120.18 661.682 120.631 661.271 121.252C660.873 121.873 660.568 122.688 660.357 123.695C660.146 124.703 660.041 125.928 660.041 127.369V132.344C660.041 133.492 660.105 134.506 660.234 135.385C660.375 136.264 660.58 137.025 660.85 137.67C661.119 138.303 661.447 138.824 661.834 139.234C662.221 139.645 662.666 139.949 663.17 140.148C663.686 140.336 664.254 140.43 664.875 140.43C665.672 140.43 666.369 140.277 666.967 139.973C667.564 139.668 668.062 139.193 668.461 138.549C668.871 137.893 669.176 137.055 669.375 136.035C669.574 135.004 669.674 133.773 669.674 132.344ZM677.531 141.027C677.531 140.477 677.701 140.014 678.041 139.639C678.393 139.252 678.896 139.059 679.553 139.059C680.209 139.059 680.707 139.252 681.047 139.639C681.398 140.014 681.574 140.477 681.574 141.027C681.574 141.566 681.398 142.023 681.047 142.398C680.707 142.773 680.209 142.961 679.553 142.961C678.896 142.961 678.393 142.773 678.041 142.398C677.701 142.023 677.531 141.566 677.531 141.027ZM697.307 117.016V142.75H694.055V121.076L687.498 123.467V120.531L696.797 117.016H697.307ZM722.936 127.914V131.816C722.936 133.914 722.748 135.684 722.373 137.125C721.998 138.566 721.459 139.727 720.756 140.605C720.053 141.484 719.203 142.123 718.207 142.521C717.223 142.908 716.109 143.102 714.867 143.102C713.883 143.102 712.975 142.979 712.143 142.732C711.311 142.486 710.561 142.094 709.893 141.555C709.236 141.004 708.674 140.289 708.205 139.41C707.736 138.531 707.379 137.465 707.133 136.211C706.887 134.957 706.764 133.492 706.764 131.816V127.914C706.764 125.816 706.951 124.059 707.326 122.641C707.713 121.223 708.258 120.086 708.961 119.23C709.664 118.363 710.508 117.742 711.492 117.367C712.488 116.992 713.602 116.805 714.832 116.805C715.828 116.805 716.742 116.928 717.574 117.174C718.418 117.408 719.168 117.789 719.824 118.316C720.48 118.832 721.037 119.523 721.494 120.391C721.963 121.246 722.32 122.295 722.566 123.537C722.812 124.779 722.936 126.238 722.936 127.914ZM719.666 132.344V127.369C719.666 126.221 719.596 125.213 719.455 124.346C719.326 123.467 719.133 122.717 718.875 122.096C718.617 121.475 718.289 120.971 717.891 120.584C717.504 120.197 717.053 119.916 716.537 119.74C716.033 119.553 715.465 119.459 714.832 119.459C714.059 119.459 713.373 119.605 712.775 119.898C712.178 120.18 711.674 120.631 711.264 121.252C710.865 121.873 710.561 122.688 710.35 123.695C710.139 124.703 710.033 125.928 710.033 127.369V132.344C710.033 133.492 710.098 134.506 710.227 135.385C710.367 136.264 710.572 137.025 710.842 137.67C711.111 138.303 711.439 138.824 711.826 139.234C712.213 139.645 712.658 139.949 713.162 140.148C713.678 140.336 714.246 140.43 714.867 140.43C715.664 140.43 716.361 140.277 716.959 139.973C717.557 139.668 718.055 139.193 718.453 138.549C718.863 137.893 719.168 137.055 719.367 136.035C719.566 135.004 719.666 133.773 719.666 132.344ZM743.186 127.914V131.816C743.186 133.914 742.998 135.684 742.623 137.125C742.248 138.566 741.709 139.727 741.006 140.605C740.303 141.484 739.453 142.123 738.457 142.521C737.473 142.908 736.359 143.102 735.117 143.102C734.133 143.102 733.225 142.979 732.393 142.732C731.561 142.486 730.811 142.094 730.143 141.555C729.486 141.004 728.924 140.289 728.455 139.41C727.986 138.531 727.629 137.465 727.383 136.211C727.137 134.957 727.014 133.492 727.014 131.816V127.914C727.014 125.816 727.201 124.059 727.576 122.641C727.963 121.223 728.508 120.086 729.211 119.23C729.914 118.363 730.758 117.742 731.742 117.367C732.738 116.992 733.852 116.805 735.082 116.805C736.078 116.805 736.992 116.928 737.824 117.174C738.668 117.408 739.418 117.789 740.074 118.316C740.73 118.832 741.287 119.523 741.744 120.391C742.213 121.246 742.57 122.295 742.816 123.537C743.062 124.779 743.186 126.238 743.186 127.914ZM739.916 132.344V127.369C739.916 126.221 739.846 125.213 739.705 124.346C739.576 123.467 739.383 122.717 739.125 122.096C738.867 121.475 738.539 120.971 738.141 120.584C737.754 120.197 737.303 119.916 736.787 119.74C736.283 119.553 735.715 119.459 735.082 119.459C734.309 119.459 733.623 119.605 733.025 119.898C732.428 120.18 731.924 120.631 731.514 121.252C731.115 121.873 730.811 122.688 730.6 123.695C730.389 124.703 730.283 125.928 730.283 127.369V132.344C730.283 133.492 730.348 134.506 730.477 135.385C730.617 136.264 730.822 137.025 731.092 137.67C731.361 138.303 731.689 138.824 732.076 139.234C732.463 139.645 732.908 139.949 733.412 140.148C733.928 140.336 734.496 140.43 735.117 140.43C735.914 140.43 736.611 140.277 737.209 139.973C737.807 139.668 738.305 139.193 738.703 138.549C739.113 137.893 739.418 137.055 739.617 136.035C739.816 135.004 739.916 133.773 739.916 132.344ZM747.773 141.027C747.773 140.477 747.943 140.014 748.283 139.639C748.635 139.252 749.139 139.059 749.795 139.059C750.451 139.059 750.949 139.252 751.289 139.639C751.641 140.014 751.816 140.477 751.816 141.027C751.816 141.566 751.641 142.023 751.289 142.398C750.949 142.773 750.451 142.961 749.795 142.961C749.139 142.961 748.635 142.773 748.283 142.398C747.943 142.023 747.773 141.566 747.773 141.027ZM760.975 130.568L758.373 129.9L759.656 117.156H772.787V120.162H762.416L761.643 127.123C762.111 126.854 762.703 126.602 763.418 126.367C764.145 126.133 764.977 126.016 765.914 126.016C767.098 126.016 768.158 126.221 769.096 126.631C770.033 127.029 770.83 127.604 771.486 128.354C772.154 129.104 772.664 130.006 773.016 131.061C773.367 132.115 773.543 133.293 773.543 134.594C773.543 135.824 773.373 136.955 773.033 137.986C772.705 139.018 772.207 139.92 771.539 140.693C770.871 141.455 770.027 142.047 769.008 142.469C768 142.891 766.811 143.102 765.439 143.102C764.408 143.102 763.43 142.961 762.504 142.68C761.59 142.387 760.77 141.947 760.043 141.361C759.328 140.764 758.742 140.025 758.285 139.146C757.84 138.256 757.559 137.213 757.441 136.018H760.535C760.676 136.979 760.957 137.787 761.379 138.443C761.801 139.1 762.352 139.598 763.031 139.938C763.723 140.266 764.525 140.43 765.439 140.43C766.213 140.43 766.898 140.295 767.496 140.025C768.094 139.756 768.598 139.369 769.008 138.865C769.418 138.361 769.729 137.752 769.939 137.037C770.162 136.322 770.273 135.52 770.273 134.629C770.273 133.82 770.162 133.07 769.939 132.379C769.717 131.688 769.383 131.084 768.938 130.568C768.504 130.053 767.971 129.654 767.338 129.373C766.705 129.08 765.979 128.934 765.158 128.934C764.068 128.934 763.242 129.08 762.68 129.373C762.129 129.666 761.561 130.064 760.975 130.568ZM793.178 127.914V131.816C793.178 133.914 792.99 135.684 792.615 137.125C792.24 138.566 791.701 139.727 790.998 140.605C790.295 141.484 789.445 142.123 788.449 142.521C787.465 142.908 786.352 143.102 785.109 143.102C784.125 143.102 783.217 142.979 782.385 142.732C781.553 142.486 780.803 142.094 780.135 141.555C779.479 141.004 778.916 140.289 778.447 139.41C777.979 138.531 777.621 137.465 777.375 136.211C777.129 134.957 777.006 133.492 777.006 131.816V127.914C777.006 125.816 777.193 124.059 777.568 122.641C777.955 121.223 778.5 120.086 779.203 119.23C779.906 118.363 780.75 117.742 781.734 117.367C782.73 116.992 783.844 116.805 785.074 116.805C786.07 116.805 786.984 116.928 787.816 117.174C788.66 117.408 789.41 117.789 790.066 118.316C790.723 118.832 791.279 119.523 791.736 120.391C792.205 121.246 792.562 122.295 792.809 123.537C793.055 124.779 793.178 126.238 793.178 127.914ZM789.908 132.344V127.369C789.908 126.221 789.838 125.213 789.697 124.346C789.568 123.467 789.375 122.717 789.117 122.096C788.859 121.475 788.531 120.971 788.133 120.584C787.746 120.197 787.295 119.916 786.779 119.74C786.275 119.553 785.707 119.459 785.074 119.459C784.301 119.459 783.615 119.605 783.018 119.898C782.42 120.18 781.916 120.631 781.506 121.252C781.107 121.873 780.803 122.688 780.592 123.695C780.381 124.703 780.275 125.928 780.275 127.369V132.344C780.275 133.492 780.34 134.506 780.469 135.385C780.609 136.264 780.814 137.025 781.084 137.67C781.354 138.303 781.682 138.824 782.068 139.234C782.455 139.645 782.9 139.949 783.404 140.148C783.92 140.336 784.488 140.43 785.109 140.43C785.906 140.43 786.604 140.277 787.201 139.973C787.799 139.668 788.297 139.193 788.695 138.549C789.105 137.893 789.41 137.055 789.609 136.035C789.809 135.004 789.908 133.773 789.908 132.344ZM797.766 141.027C797.766 140.477 797.936 140.014 798.275 139.639C798.627 139.252 799.131 139.059 799.787 139.059C800.443 139.059 800.941 139.252 801.281 139.639C801.633 140.014 801.809 140.477 801.809 141.027C801.809 141.566 801.633 142.023 801.281 142.398C800.941 142.773 800.443 142.961 799.787 142.961C799.131 142.961 798.627 142.773 798.275 142.398C797.936 142.023 797.766 141.566 797.766 141.027ZM817.541 117.016V142.75H814.289V121.076L807.732 123.467V120.531L817.031 117.016H817.541ZM843.17 127.914V131.816C843.17 133.914 842.982 135.684 842.607 137.125C842.232 138.566 841.693 139.727 840.99 140.605C840.287 141.484 839.438 142.123 838.441 142.521C837.457 142.908 836.344 143.102 835.102 143.102C834.117 143.102 833.209 142.979 832.377 142.732C831.545 142.486 830.795 142.094 830.127 141.555C829.471 141.004 828.908 140.289 828.439 139.41C827.971 138.531 827.613 137.465 827.367 136.211C827.121 134.957 826.998 133.492 826.998 131.816V127.914C826.998 125.816 827.186 124.059 827.561 122.641C827.947 121.223 828.492 120.086 829.195 119.23C829.898 118.363 830.742 117.742 831.727 117.367C832.723 116.992 833.836 116.805 835.066 116.805C836.062 116.805 836.977 116.928 837.809 117.174C838.652 117.408 839.402 117.789 840.059 118.316C840.715 118.832 841.271 119.523 841.729 120.391C842.197 121.246 842.555 122.295 842.801 123.537C843.047 124.779 843.17 126.238 843.17 127.914ZM839.9 132.344V127.369C839.9 126.221 839.83 125.213 839.689 124.346C839.561 123.467 839.367 122.717 839.109 122.096C838.852 121.475 838.523 120.971 838.125 120.584C837.738 120.197 837.287 119.916 836.771 119.74C836.268 119.553 835.699 119.459 835.066 119.459C834.293 119.459 833.607 119.605 833.01 119.898C832.412 120.18 831.908 120.631 831.498 121.252C831.1 121.873 830.795 122.688 830.584 123.695C830.373 124.703 830.268 125.928 830.268 127.369V132.344C830.268 133.492 830.332 134.506 830.461 135.385C830.602 136.264 830.807 137.025 831.076 137.67C831.346 138.303 831.674 138.824 832.061 139.234C832.447 139.645 832.893 139.949 833.396 140.148C833.912 140.336 834.48 140.43 835.102 140.43C835.898 140.43 836.596 140.277 837.193 139.973C837.791 139.668 838.289 139.193 838.688 138.549C839.098 137.893 839.402 137.055 839.602 136.035C839.801 135.004 839.9 133.773 839.9 132.344Z" fill="#1A73E8"/>
<g clip-path="url(#clip6_145_393)">
<path d="M793.832 291.557C794.036 291.811 794.207 292.041 794.344 292.245C801.025 302.187 807.691 312.137 814.342 322.097C815.17 323.336 815.995 324.513 816.816 325.627C817.677 326.791 818.524 327.966 819.357 329.153C819.383 329.191 819.418 329.222 819.46 329.242C819.501 329.262 819.547 329.271 819.593 329.268L820.609 329.211" stroke="#F2935F" stroke-width="1.5"/>
<path d="M820.609 329.211C821.681 327.676 822.715 326.046 823.711 324.32C824.13 323.595 824.727 323.007 825.164 322.352C831.879 312.273 838.661 302.112 845.51 291.869" stroke="#C48442" stroke-width="1.5"/>
<path d="M845.51 291.869C846.135 291.305 846.976 290.743 848.036 290.183C850.138 289.071 852.261 287.708 854.403 286.092C856.653 284.394 858.081 283.272 858.688 282.727C859.454 282.035 860.764 280.735 862.618 278.827C863.139 278.292 863.632 277.741 864.097 277.175C864.562 276.607 865.027 276.029 865.492 275.443C871.702 267.594 875.667 258.686 877.388 248.72C877.664 247.134 877.955 245.521 878.055 243.908C878.309 239.847 878.269 236.304 877.933 233.28C876.646 221.699 872.368 211.372 865.101 202.3C862.328 198.839 858.989 195.623 855.086 192.651C847.919 187.195 839.887 183.603 830.989 181.875C828.021 181.299 825.439 180.953 823.241 180.838C822.78 180.814 821.649 180.801 819.848 180.801" stroke="#F2935F" stroke-width="1.5"/>
<path d="M819.848 180.801C818.067 180.749 816.42 180.8 814.906 180.956C800.723 182.409 788.652 188.011 778.692 197.761C777.275 199.147 775.915 200.646 774.613 202.257C767.554 210.986 763.303 220.945 761.86 232.134C761.393 235.754 761.29 239.818 761.548 243.059C762.836 259.397 770.45 274.264 783.101 284.419C786.169 286.883 789.354 288.985 792.655 290.726C792.861 290.833 793.06 290.964 793.25 291.12C793.454 291.284 793.648 291.429 793.832 291.556" stroke="#FFA96F" stroke-width="1.5"/>
<path d="M819.848 180.801L819.745 201.657" stroke="#F24F60" stroke-width="1.5"/>
<path d="M819.745 201.657C819.784 201.671 819.821 201.685 819.857 201.7" stroke="#F2A5AA" stroke-width="1.5"/>
<path d="M819.858 201.699C798.687 201.845 781.639 219.135 782.416 240.439C783.149 260.682 799.566 276.344 819.758 276.586" stroke="#FFB2B7" stroke-width="1.5"/>
<path d="M819.757 276.586L819.854 297.375C819.854 297.409 819.847 297.443 819.834 297.474C819.82 297.505 819.8 297.533 819.775 297.556C819.75 297.579 819.72 297.596 819.688 297.607C819.655 297.618 819.621 297.621 819.587 297.618C817.826 297.439 816.027 297.478 814.317 297.306C809.059 296.772 804.124 295.644 799.511 293.922C798.017 293.366 796.124 292.577 793.832 291.557" stroke="#F24F60" stroke-width="1.5"/>
<path d="M819.839 218.198L817.028 218.225C817.006 218.225 816.983 218.23 816.963 218.238C816.942 218.247 816.923 218.26 816.907 218.276C816.891 218.292 816.879 218.311 816.87 218.332C816.862 218.353 816.858 218.375 816.858 218.398L816.883 259.797C816.883 259.906 816.937 259.964 817.046 259.97L819.721 260.112" stroke="#A9BCC1" stroke-width="1.5"/>
<path d="M845.51 291.869C844.471 292.215 843.462 292.589 842.484 292.991C840.86 293.658 839.865 294.057 839.497 294.189C833.198 296.418 826.725 297.545 820.078 297.569C819.933 297.569 819.86 297.641 819.86 297.785C819.856 307.407 819.869 317.183 819.9 327.112C819.902 327.695 819.938 328.26 820.009 328.807C820.043 329.072 820.243 329.207 820.609 329.211" stroke="#B72A33" stroke-width="1.5"/>
<path d="M819.757 276.586C827.686 276.508 834.819 274.28 841.159 269.903C853.612 261.304 859.595 245.982 856.459 231.403C855.127 225.203 852.536 219.817 848.685 215.245C841.296 206.471 831.65 201.942 819.745 201.657" stroke="#E58F9B" stroke-width="1.5"/>
<path d="M819.757 276.586C819.933 276.55 819.982 276.384 819.906 276.089C819.853 275.897 819.827 275.738 819.827 275.613C819.837 271.032 819.829 266.452 819.803 261.871C819.803 261.853 819.818 261.577 819.848 261.043C819.87 260.687 819.828 260.377 819.721 260.112" stroke="#F2F2F2" stroke-width="1.5"/>
<path d="M819.721 260.112C819.769 260.108 819.818 260.104 819.866 260.1" stroke="#9CAFB4" stroke-width="1.5"/>
<path d="M819.866 260.1L825.818 260.07C825.834 260.07 825.849 260.067 825.864 260.061C825.878 260.055 825.891 260.046 825.902 260.034C825.913 260.023 825.922 260.01 825.928 259.995C825.934 259.98 825.937 259.965 825.937 259.949L825.934 246.003C825.934 245.948 825.956 245.895 825.996 245.855C826.036 245.816 826.09 245.794 826.146 245.794C827.466 245.794 828.933 245.783 830.546 245.761C834.269 245.708 837.463 244.452 840.128 241.992C847.975 234.745 844.779 222.164 834.879 218.877C833.563 218.44 831.932 218.217 829.988 218.207C826.681 218.189 823.375 218.187 820.069 218.201" stroke="#8F9797" stroke-width="1.5"/>
<path d="M820.069 218.201C820.015 218.183 819.938 218.182 819.839 218.198" stroke="#9CAFB4" stroke-width="1.5"/>
<path d="M819.839 218.198L819.857 201.699" stroke="#F2F2F2" stroke-width="1.5"/>
<path d="M820.07 218.201C819.944 218.203 819.852 218.23 819.794 218.283C819.745 218.325 819.733 218.405 819.757 218.522C819.784 218.658 819.797 218.793 819.797 218.929C819.787 232.653 819.81 246.376 819.866 260.1" stroke="#466166" stroke-width="1.5"/>
<path d="M812.068 218.38C812.068 218.331 812.048 218.284 812.013 218.249C811.979 218.214 811.932 218.195 811.883 218.195H803.18C803.131 218.195 803.084 218.214 803.049 218.249C803.015 218.284 802.995 218.331 802.995 218.38V259.885C802.995 259.934 803.015 259.981 803.049 260.016C803.084 260.05 803.131 260.07 803.18 260.07H811.883C811.932 260.07 811.979 260.05 812.013 260.016C812.048 259.981 812.068 259.934 812.068 259.885V218.38Z" stroke="#A9BCC1" stroke-width="1.5"/>
<path d="M825.958 227.425V236.546C825.958 236.572 825.963 236.597 825.973 236.621C825.983 236.645 825.997 236.667 826.016 236.685C826.034 236.704 826.056 236.718 826.08 236.728C826.104 236.738 826.129 236.743 826.155 236.743H830.3C830.978 236.743 831.649 236.621 832.275 236.384C832.901 236.147 833.47 235.8 833.949 235.362C834.429 234.924 834.809 234.404 835.068 233.832C835.328 233.26 835.461 232.647 835.461 232.028V231.943C835.461 231.324 835.328 230.711 835.068 230.139C834.809 229.567 834.429 229.047 833.949 228.609C833.47 228.171 832.901 227.824 832.275 227.587C831.649 227.35 830.978 227.228 830.3 227.228H826.155C826.129 227.228 826.104 227.233 826.08 227.243C826.056 227.253 826.034 227.267 826.016 227.286C825.997 227.304 825.983 227.326 825.973 227.35C825.963 227.373 825.958 227.399 825.958 227.425Z" stroke="#8F9797" stroke-width="1.5"/>
<path d="M817.289 176.25H821.27C821.903 176.341 822.536 176.402 823.168 176.432C826.546 176.586 829.98 176.982 833.469 177.621C863.318 183.094 887.321 205.735 894.65 235.157C895.94 240.34 896.723 245.607 897 250.958V257.013C896.178 274.794 889.544 291.672 877.718 305.017C866.919 317.206 853.637 325.311 837.872 329.332C833.436 330.464 828.396 331.187 822.75 331.5H816.573C795.047 330.439 775.02 321.054 760.895 304.78C751.395 293.834 745.406 281.214 742.93 266.92C742.424 264.015 742.093 260.931 741.935 257.668C741.905 257.034 741.843 256.4 741.75 255.767V251.843C741.896 250.956 741.973 250.395 741.983 250.161C742.657 235.463 747.378 221.445 755.795 209.483C767.415 192.97 784.789 181.544 804.669 177.745C808.376 177.035 812.039 176.596 815.657 176.426C816.201 176.4 816.745 176.341 817.289 176.25ZM793.832 291.556C794.036 291.811 794.207 292.041 794.344 292.245C801.025 302.186 807.691 312.137 814.342 322.097C815.17 323.336 815.995 324.513 816.816 325.627C817.677 326.791 818.524 327.966 819.357 329.153C819.383 329.191 819.418 329.222 819.46 329.242C819.501 329.262 819.547 329.271 819.593 329.268L820.609 329.211C821.681 327.676 822.714 326.046 823.711 324.32C824.13 323.595 824.727 323.007 825.164 322.352C831.879 312.273 838.661 302.112 845.51 291.869C846.134 291.305 846.976 290.743 848.036 290.183C850.138 289.071 852.261 287.708 854.403 286.092C856.653 284.394 858.081 283.272 858.688 282.727C859.454 282.035 860.764 280.735 862.618 278.827C863.139 278.292 863.632 277.741 864.097 277.175C864.562 276.607 865.027 276.029 865.492 275.443C871.702 267.594 875.667 258.686 877.388 248.72C877.663 247.134 877.955 245.521 878.055 243.908C878.309 239.847 878.269 236.304 877.933 233.28C876.646 221.699 872.368 211.372 865.101 202.3C862.327 198.839 858.989 195.623 855.086 192.651C847.919 187.195 839.887 183.603 830.988 181.875C828.021 181.299 825.438 180.953 823.241 180.838C822.78 180.814 821.649 180.801 819.848 180.801C818.067 180.749 816.42 180.8 814.905 180.956C800.723 182.409 788.651 188.011 778.692 197.761C777.275 199.147 775.915 200.646 774.613 202.257C767.554 210.986 763.303 220.945 761.86 232.134C761.393 235.754 761.29 239.818 761.547 243.059C762.836 259.397 770.45 274.264 783.1 284.419C786.169 286.883 789.354 288.985 792.655 290.726C792.861 290.833 793.059 290.964 793.249 291.12C793.454 291.284 793.648 291.429 793.832 291.556Z" fill="#FFED6E"/>
<path d="M819.848 180.801L819.745 201.657C819.784 201.671 819.821 201.685 819.857 201.7C798.686 201.845 781.639 219.135 782.415 240.439C783.149 260.682 799.566 276.344 819.757 276.586L819.854 297.375C819.854 297.409 819.847 297.443 819.834 297.474C819.82 297.505 819.8 297.533 819.775 297.556C819.75 297.579 819.72 297.596 819.688 297.607C819.655 297.618 819.621 297.621 819.587 297.618C817.826 297.439 816.028 297.478 814.317 297.306C809.06 296.772 804.124 295.644 799.511 293.922C798.017 293.366 796.124 292.577 793.832 291.556C793.648 291.429 793.454 291.284 793.25 291.12C793.06 290.964 792.861 290.833 792.655 290.726C789.354 288.985 786.169 286.883 783.101 284.419C770.45 274.264 762.836 259.397 761.548 243.059C761.29 239.818 761.393 235.754 761.86 232.134C763.303 220.945 767.554 210.986 774.613 202.257C775.915 200.646 777.275 199.147 778.692 197.761C788.652 188.011 800.723 182.409 814.906 180.956C816.42 180.8 818.067 180.749 819.848 180.801Z" fill="#FE646F"/>
<path d="M819.848 180.801C821.649 180.801 822.78 180.814 823.241 180.838C825.438 180.953 828.021 181.299 830.988 181.875C839.887 183.603 847.919 187.195 855.086 192.651C858.989 195.623 862.328 198.839 865.101 202.3C872.368 211.372 876.646 221.699 877.933 233.28C878.269 236.304 878.309 239.847 878.055 243.908C877.955 245.521 877.664 247.134 877.388 248.72C875.667 258.686 871.702 267.594 865.492 275.443C865.027 276.029 864.562 276.607 864.097 277.175C863.632 277.741 863.139 278.292 862.618 278.827C860.764 280.736 859.454 282.035 858.688 282.727C858.081 283.272 856.653 284.394 854.403 286.092C852.261 287.708 850.138 289.071 848.036 290.183C846.976 290.743 846.134 291.305 845.51 291.869C844.471 292.214 843.462 292.588 842.484 292.991C840.86 293.658 839.865 294.057 839.497 294.188C833.198 296.418 826.725 297.545 820.078 297.569C819.933 297.569 819.86 297.641 819.86 297.785C819.856 307.407 819.869 317.183 819.9 327.112C819.902 327.695 819.938 328.26 820.009 328.807C820.043 329.072 820.243 329.207 820.609 329.211L819.593 329.268C819.547 329.271 819.501 329.262 819.46 329.242C819.418 329.222 819.383 329.191 819.357 329.153C818.524 327.966 817.677 326.791 816.816 325.627C815.995 324.513 815.17 323.336 814.342 322.097C807.691 312.137 801.025 302.186 794.344 292.245C794.207 292.041 794.036 291.811 793.832 291.557C796.124 292.577 798.017 293.366 799.511 293.922C804.124 295.644 809.059 296.772 814.317 297.306C816.027 297.478 817.826 297.439 819.587 297.618C819.621 297.621 819.655 297.618 819.688 297.607C819.72 297.596 819.75 297.579 819.775 297.556C819.8 297.533 819.82 297.505 819.834 297.474C819.847 297.443 819.854 297.409 819.854 297.375L819.757 276.586C827.685 276.508 834.819 274.28 841.159 269.903C853.612 261.304 859.594 245.982 856.459 231.403C855.127 225.203 852.535 219.817 848.685 215.244C841.296 206.471 831.649 201.942 819.745 201.657L819.848 180.801Z" fill="#E53950"/>
<path d="M819.745 201.657C831.649 201.942 841.296 206.471 848.685 215.244C852.535 219.817 855.127 225.203 856.459 231.403C859.594 245.982 853.612 261.304 841.159 269.903C834.819 274.28 827.685 276.507 819.757 276.586C819.933 276.55 819.982 276.384 819.906 276.089C819.853 275.897 819.827 275.738 819.827 275.613C819.837 271.032 819.829 266.452 819.803 261.871C819.803 261.853 819.818 261.577 819.848 261.043C819.87 260.687 819.828 260.377 819.721 260.112C819.769 260.108 819.818 260.104 819.866 260.1L825.819 260.07C825.834 260.07 825.849 260.067 825.864 260.061C825.878 260.054 825.891 260.046 825.902 260.034C825.913 260.023 825.922 260.01 825.928 259.995C825.934 259.98 825.937 259.964 825.937 259.949L825.934 246.003C825.934 245.948 825.956 245.895 825.996 245.855C826.036 245.816 826.09 245.794 826.146 245.794C827.466 245.794 828.933 245.783 830.546 245.761C834.269 245.708 837.463 244.452 840.128 241.992C847.975 234.745 844.779 222.164 834.879 218.877C833.563 218.44 831.932 218.217 829.988 218.207C826.681 218.189 823.375 218.187 820.069 218.201C820.015 218.183 819.938 218.182 819.839 218.198L819.857 201.699C819.821 201.685 819.783 201.671 819.745 201.657Z" fill="#E5E5E5"/>
<path d="M819.857 201.699L819.839 218.198L817.028 218.225C817.005 218.225 816.983 218.23 816.962 218.238C816.942 218.247 816.923 218.26 816.907 218.276C816.891 218.292 816.879 218.311 816.87 218.332C816.862 218.353 816.858 218.375 816.858 218.398L816.882 259.797C816.882 259.906 816.937 259.964 817.046 259.97L819.721 260.112C819.828 260.377 819.87 260.687 819.848 261.043C819.818 261.577 819.803 261.853 819.803 261.871C819.829 266.452 819.837 271.032 819.827 275.613C819.827 275.738 819.853 275.897 819.906 276.089C819.982 276.384 819.933 276.55 819.757 276.586C799.565 276.344 783.149 260.682 782.415 240.439C781.639 219.135 798.686 201.845 819.857 201.699ZM812.067 218.38C812.067 218.331 812.048 218.284 812.013 218.249C811.978 218.214 811.931 218.195 811.882 218.195H803.18C803.131 218.195 803.084 218.214 803.049 218.249C803.014 218.284 802.995 218.331 802.995 218.38V259.885C802.995 259.934 803.014 259.981 803.049 260.016C803.084 260.05 803.131 260.07 803.18 260.07H811.882C811.931 260.07 811.978 260.05 812.013 260.016C812.048 259.981 812.067 259.934 812.067 259.885V218.38Z" fill="white"/>
<path d="M811.883 218.195H803.18C803.078 218.195 802.995 218.278 802.995 218.38V259.885C802.995 259.987 803.078 260.07 803.18 260.07H811.883C811.985 260.07 812.068 259.987 812.068 259.885V218.38C812.068 218.278 811.985 218.195 811.883 218.195Z" fill="#537983"/>
<path d="M819.839 218.198C819.938 218.182 820.015 218.183 820.07 218.201C819.944 218.203 819.852 218.23 819.794 218.283C819.745 218.325 819.733 218.405 819.757 218.522C819.784 218.658 819.797 218.793 819.797 218.929C819.787 232.652 819.81 246.376 819.866 260.1C819.818 260.104 819.769 260.108 819.721 260.112L817.046 259.97C816.937 259.964 816.883 259.906 816.883 259.797L816.858 218.398C816.858 218.375 816.862 218.353 816.87 218.332C816.879 218.311 816.891 218.292 816.907 218.276C816.923 218.26 816.942 218.247 816.963 218.238C816.983 218.23 817.006 218.225 817.028 218.225L819.839 218.198Z" fill="#537983"/>
<path d="M820.07 218.201C823.375 218.187 826.681 218.189 829.988 218.207C831.933 218.217 833.563 218.44 834.879 218.877C844.779 222.164 847.975 234.745 840.128 241.992C837.463 244.452 834.269 245.708 830.546 245.761C828.933 245.783 827.466 245.794 826.146 245.794C826.09 245.794 826.036 245.816 825.996 245.855C825.956 245.895 825.934 245.948 825.934 246.003L825.937 259.949C825.937 259.964 825.934 259.98 825.928 259.995C825.922 260.01 825.913 260.023 825.902 260.034C825.891 260.046 825.878 260.054 825.864 260.061C825.85 260.067 825.834 260.07 825.819 260.07L819.866 260.1C819.81 246.376 819.787 232.652 819.797 218.929C819.797 218.793 819.784 218.658 819.757 218.522C819.733 218.405 819.745 218.325 819.794 218.283C819.852 218.23 819.944 218.203 820.07 218.201ZM825.958 227.425V236.546C825.958 236.572 825.963 236.597 825.973 236.621C825.983 236.645 825.998 236.667 826.016 236.685C826.034 236.703 826.056 236.718 826.08 236.728C826.104 236.738 826.129 236.743 826.155 236.743H830.3C830.978 236.743 831.649 236.621 832.275 236.384C832.901 236.147 833.47 235.8 833.95 235.362C834.429 234.924 834.809 234.404 835.068 233.832C835.328 233.26 835.461 232.647 835.461 232.028V231.943C835.461 231.324 835.328 230.711 835.068 230.138C834.809 229.566 834.429 229.047 833.95 228.609C833.47 228.171 832.901 227.824 832.275 227.587C831.649 227.35 830.978 227.228 830.3 227.228H826.155C826.129 227.228 826.104 227.233 826.08 227.243C826.056 227.253 826.034 227.267 826.016 227.285C825.998 227.304 825.983 227.326 825.973 227.349C825.963 227.373 825.958 227.399 825.958 227.425Z" fill="#384949"/>
<path d="M825.958 227.425C825.958 227.399 825.963 227.373 825.973 227.349C825.983 227.326 825.997 227.304 826.016 227.286C826.034 227.267 826.056 227.253 826.08 227.243C826.104 227.233 826.129 227.228 826.155 227.228H830.3C830.978 227.228 831.649 227.35 832.275 227.587C832.901 227.824 833.47 228.171 833.949 228.609C834.429 229.047 834.809 229.566 835.068 230.139C835.328 230.711 835.461 231.324 835.461 231.943V232.028C835.461 232.647 835.328 233.26 835.068 233.832C834.809 234.404 834.429 234.924 833.949 235.362C833.47 235.8 832.901 236.147 832.275 236.384C831.649 236.621 830.978 236.743 830.3 236.743H826.155C826.129 236.743 826.104 236.738 826.08 236.728C826.056 236.718 826.034 236.703 826.016 236.685C825.997 236.667 825.983 236.645 825.973 236.621C825.963 236.597 825.958 236.572 825.958 236.546V227.425Z" fill="#E5E5E5"/>
<path d="M845.51 291.869C838.661 302.112 831.879 312.273 825.163 322.352C824.727 323.007 824.129 323.595 823.711 324.32C822.714 326.046 821.68 327.676 820.609 329.211C820.243 329.207 820.043 329.072 820.009 328.807C819.938 328.26 819.902 327.695 819.9 327.112C819.869 317.183 819.856 307.407 819.86 297.785C819.86 297.641 819.933 297.569 820.078 297.569C826.725 297.545 833.198 296.418 839.497 294.188C839.865 294.057 840.86 293.658 842.484 292.991C843.462 292.588 844.471 292.214 845.51 291.869Z" fill="#891B16"/>
</g>
</g>
<defs>
<clipPath id="clip0_145_393">
<rect width="960" height="600" fill="white"/>
</clipPath>
<clipPath id="clip1_145_393">
<rect width="844.682" height="132.21" fill="white" transform="translate(69.75 207.75)"/>
</clipPath>
<clipPath id="clip2_145_393">
<rect width="119.595" height="51.5902" fill="white" transform="translate(781.392 247.109)"/>
</clipPath>
<clipPath id="clip3_145_393">
<rect width="339.641" height="65.6602" fill="white" transform="translate(383.981 241.127)"/>
</clipPath>
<clipPath id="clip4_145_393">
<rect width="255.606" height="37.5201" fill="white" transform="translate(97.8906 257.302)"/>
</clipPath>
<clipPath id="clip5_145_393">
<rect width="165" height="102" fill="white" transform="translate(461.25 108)"/>
</clipPath>
<clipPath id="clip6_145_393">
<rect width="155.25" height="155.25" fill="white" transform="translate(741.75 176.25)"/>
</clipPath>
</defs>
</svg>
