<?xml version="1.0" encoding="UTF-8" standalone="no"?>
<svg xmlns="http://www.w3.org/2000/svg" version="1.2" baseProfile="tiny" viewBox="0.00 0.00 512.00 512.00">
<g stroke-width="2.00" fill="none" stroke-linecap="butt">
<path stroke="#f2935f" vector-effect="non-scaling-stroke" d="
  M 171.76 380.27
  Q 172.77 381.53 173.45 382.54
  Q 206.50 431.72 239.40 480.99
  Q 243.50 487.12 247.56 492.63
  Q 251.82 498.39 255.94 504.26
  A 0.88 0.88 0.0 0 0 256.72 504.64
  L 260.07 504.45"
/>
<path stroke="#c48442" vector-effect="non-scaling-stroke" d="
  M 260.07 504.45
  Q 265.37 496.86 270.30 488.32
  C 271.68 485.93 273.65 483.99 275.09 481.83
  Q 308.31 431.97 342.19 381.30"
/>
<path stroke="#f2935f" vector-effect="non-scaling-stroke" d="
  M 342.19 381.30
  Q 345.28 378.51 350.52 375.74
  Q 360.92 370.24 371.52 362.25
  Q 382.65 353.85 385.65 351.15
  Q 389.44 347.73 398.61 338.29
  Q 401.19 335.64 403.49 332.84
  Q 405.79 330.03 408.09 327.13
  Q 438.81 288.30 447.32 239.00
  C 448.23 233.77 449.19 228.45 449.52 223.13
  Q 450.78 203.04 449.12 188.08
  Q 442.75 130.79 406.80 85.91
  Q 393.08 68.79 373.77 54.09
  Q 338.32 27.10 294.30 18.55
  Q 279.62 15.70 268.75 15.13
  Q 266.47 15.01 257.56 15.01"
/>
<path stroke="#ffa96f" vector-effect="non-scaling-stroke" d="
  M 257.56 15.01
  Q 248.75 14.75 241.26 15.52
  Q 171.10 22.71 121.83 70.94
  Q 114.82 77.80 108.38 85.77
  Q 73.46 128.95 66.32 184.30
  C 64.78 196.24 64.44 209.64 65.29 220.33
  C 69.54 274.21 94.65 323.24 136.37 356.73
  Q 151.55 368.92 167.88 377.53
  Q 168.90 378.06 169.84 378.83
  Q 170.85 379.64 171.76 380.27"
/>
<path stroke="#f24f60" vector-effect="non-scaling-stroke" d="
  M 257.56 15.01
  L 257.22 83.79"
/>
<path stroke="#f2a5aa" vector-effect="non-scaling-stroke" d="
  M 257.22 83.79
  Q 257.41 83.86 257.59 83.93"
/>
<path stroke="#ffb2b7" vector-effect="non-scaling-stroke" d="
  M 257.59 83.93
  C 187.77 84.41 131.55 141.43 134.11 211.69
  C 136.53 278.45 190.67 330.10 257.26 330.90"
/>
<path stroke="#f24f60" vector-effect="non-scaling-stroke" d="
  M 257.26 330.90
  L 257.58 399.46
  A 0.80 0.80 0.0 0 1 256.70 400.26
  C 250.89 399.67 244.96 399.80 239.32 399.23
  Q 213.31 396.59 190.49 388.07
  Q 183.10 385.32 171.76 380.27"
/>
<path stroke="#a9bcc1" vector-effect="non-scaling-stroke" d="
  M 257.53 138.34
  L 248.26 138.43
  A 0.56 0.56 0.0 0 0 247.70 139.00
  L 247.78 275.53
  Q 247.78 276.07 248.32 276.10
  L 257.14 276.57"
/>
<path stroke="#b72a33" vector-effect="non-scaling-stroke" d="
  M 342.19 381.30
  Q 337.05 383.01 332.21 385.00
  Q 324.18 388.30 322.36 388.95
  Q 291.20 399.98 258.32 400.10
  Q 257.60 400.10 257.60 400.81
  Q 257.58 448.41 257.73 497.53
  Q 257.74 500.41 258.09 503.12
  Q 258.26 504.43 260.07 504.45"
/>
<path stroke="#e58f9b" vector-effect="non-scaling-stroke" d="
  M 257.26 330.90
  Q 296.48 330.51 327.84 308.86
  C 368.91 280.50 388.64 229.97 378.30 181.89
  Q 371.71 151.22 352.66 128.60
  Q 316.11 85.20 257.22 83.79"
/>
<path stroke="#f2f2f2" vector-effect="non-scaling-stroke" d="
  M 257.26 330.90
  Q 258.13 330.72 257.75 329.26
  Q 257.49 328.31 257.49 327.69
  Q 257.54 305.03 257.41 282.37
  Q 257.41 282.28 257.56 279.64
  Q 257.67 277.88 257.14 276.57"
/>
<path stroke="#9cafb4" vector-effect="non-scaling-stroke" d="
  M 257.14 276.57
  Q 257.38 276.55 257.62 276.53"
/>
<path stroke="#8f9797" vector-effect="non-scaling-stroke" d="
  M 257.62 276.53
  L 277.25 276.43
  A 0.40 0.39 -90.0 0 0 277.64 276.03
  L 277.63 230.04
  A 0.70 0.69 0.0 0 1 278.33 229.35
  Q 284.86 229.35 292.84 229.24
  Q 311.26 228.98 324.44 216.81
  C 350.32 192.91 339.78 151.42 307.13 140.58
  Q 300.62 138.42 291.00 138.37
  Q 274.64 138.28 258.29 138.35"
/>
<path stroke="#9cafb4" vector-effect="non-scaling-stroke" d="
  M 258.29 138.35
  Q 258.02 138.26 257.53 138.34"
/>
<path stroke="#f2f2f2" vector-effect="non-scaling-stroke" d="
  M 257.53 138.34
  L 257.59 83.93"
/>
<path stroke="#466166" vector-effect="non-scaling-stroke" d="
  M 258.29 138.35
  Q 257.67 138.36 257.38 138.62
  Q 257.14 138.83 257.26 139.41
  Q 257.39 140.08 257.39 140.75
  Q 257.34 208.64 257.62 276.53"
/>
<path stroke="#a9bcc1" vector-effect="non-scaling-stroke" d="
  M 231.90 138.94
  A 0.61 0.61 0.0 0 0 231.29 138.33
  L 202.59 138.33
  A 0.61 0.61 0.0 0 0 201.98 138.94
  L 201.98 275.82
  A 0.61 0.61 0.0 0 0 202.59 276.43
  L 231.29 276.43
  A 0.61 0.61 0.0 0 0 231.90 275.82
  L 231.90 138.94"
/>
<path stroke="#8f9797" vector-effect="non-scaling-stroke" d="
  M 277.71 168.77
  L 277.71 198.85
  A 0.65 0.65 0.0 0 0 278.36 199.50
  L 292.03 199.50
  A 17.02 15.55 0.0 0 0 309.05 183.95
  L 309.05 183.67
  A 17.02 15.55 -0.0 0 0 292.03 168.12
  L 278.36 168.12
  A 0.65 0.65 0.0 0 0 277.71 168.77"
/>
</g>
<path fill="#ffed6e" d="
  M 249.12 0.00
  L 262.25 0.00
  Q 265.38 0.45 268.51 0.60
  Q 285.22 1.36 302.48 4.52
  C 400.92 22.57 480.08 97.24 504.25 194.27
  Q 510.63 219.91 512.00 246.38
  L 512.00 266.35
  C 509.29 324.99 487.41 380.65 448.41 424.66
  Q 394.99 484.96 317.00 504.85
  Q 295.06 510.45 267.13 512.00
  L 246.76 512.00
  C 175.77 508.50 109.72 477.55 63.14 423.88
  Q 16.14 369.73 3.89 299.02
  Q 1.39 284.65 0.61 268.51
  Q 0.46 265.37 0.00 262.24
  L 0.00 249.30
  Q 0.72 244.91 0.77 243.75
  C 2.99 195.28 18.56 149.05 46.32 109.60
  C 84.64 55.14 141.94 17.46 207.50 4.93
  Q 225.84 1.42 243.74 0.58
  Q 246.43 0.45 249.12 0.00
  Z
  M 171.76 380.27
  Q 172.77 381.53 173.45 382.54
  Q 206.50 431.72 239.40 480.99
  Q 243.50 487.12 247.56 492.63
  Q 251.82 498.39 255.94 504.26
  A 0.88 0.88 0.0 0 0 256.72 504.64
  L 260.07 504.45
  Q 265.37 496.86 270.30 488.32
  C 271.68 485.93 273.65 483.99 275.09 481.83
  Q 308.31 431.97 342.19 381.30
  Q 345.28 378.51 350.52 375.74
  Q 360.92 370.24 371.52 362.25
  Q 382.65 353.85 385.65 351.15
  Q 389.44 347.73 398.61 338.29
  Q 401.19 335.64 403.49 332.84
  Q 405.79 330.03 408.09 327.13
  Q 438.81 288.30 447.32 239.00
  C 448.23 233.77 449.19 228.45 449.52 223.13
  Q 450.78 203.04 449.12 188.08
  Q 442.75 130.79 406.80 85.91
  Q 393.08 68.79 373.77 54.09
  Q 338.32 27.10 294.30 18.55
  Q 279.62 15.70 268.75 15.13
  Q 266.47 15.01 257.56 15.01
  Q 248.75 14.75 241.26 15.52
  Q 171.10 22.71 121.83 70.94
  Q 114.82 77.80 108.38 85.77
  Q 73.46 128.95 66.32 184.30
  C 64.78 196.24 64.44 209.64 65.29 220.33
  C 69.54 274.21 94.65 323.24 136.37 356.73
  Q 151.55 368.92 167.88 377.53
  Q 168.90 378.06 169.84 378.83
  Q 170.85 379.64 171.76 380.27
  Z"
/>
<path fill="#fe646f" d="
  M 257.56 15.01
  L 257.22 83.79
  Q 257.41 83.86 257.59 83.93
  C 187.77 84.41 131.55 141.43 134.11 211.69
  C 136.53 278.45 190.67 330.10 257.26 330.90
  L 257.58 399.46
  A 0.80 0.80 0.0 0 1 256.70 400.26
  C 250.89 399.67 244.96 399.80 239.32 399.23
  Q 213.31 396.59 190.49 388.07
  Q 183.10 385.32 171.76 380.27
  Q 170.85 379.64 169.84 378.83
  Q 168.90 378.06 167.88 377.53
  Q 151.55 368.92 136.37 356.73
  C 94.65 323.24 69.54 274.21 65.29 220.33
  C 64.44 209.64 64.78 196.24 66.32 184.30
  Q 73.46 128.95 108.38 85.77
  Q 114.82 77.80 121.83 70.94
  Q 171.10 22.71 241.26 15.52
  Q 248.75 14.75 257.56 15.01
  Z"
/>
<path fill="#e53950" d="
  M 257.56 15.01
  Q 266.47 15.01 268.75 15.13
  Q 279.62 15.70 294.30 18.55
  Q 338.32 27.10 373.77 54.09
  Q 393.08 68.79 406.80 85.91
  Q 442.75 130.79 449.12 188.08
  Q 450.78 203.04 449.52 223.13
  C 449.19 228.45 448.23 233.77 447.32 239.00
  Q 438.81 288.30 408.09 327.13
  Q 405.79 330.03 403.49 332.84
  Q 401.19 335.64 398.61 338.29
  Q 389.44 347.73 385.65 351.15
  Q 382.65 353.85 371.52 362.25
  Q 360.92 370.24 350.52 375.74
  Q 345.28 378.51 342.19 381.30
  Q 337.05 383.01 332.21 385.00
  Q 324.18 388.30 322.36 388.95
  Q 291.20 399.98 258.32 400.10
  Q 257.60 400.10 257.60 400.81
  Q 257.58 448.41 257.73 497.53
  Q 257.74 500.41 258.09 503.12
  Q 258.26 504.43 260.07 504.45
  L 256.72 504.64
  A 0.88 0.88 0.0 0 1 255.94 504.26
  Q 251.82 498.39 247.56 492.63
  Q 243.50 487.12 239.40 480.99
  Q 206.50 431.72 173.45 382.54
  Q 172.77 381.53 171.76 380.27
  Q 183.10 385.32 190.49 388.07
  Q 213.31 396.59 239.32 399.23
  C 244.96 399.80 250.89 399.67 256.70 400.26
  A 0.80 0.80 0.0 0 0 257.58 399.46
  L 257.26 330.90
  Q 296.48 330.51 327.84 308.86
  C 368.91 280.50 388.64 229.97 378.30 181.89
  Q 371.71 151.22 352.66 128.60
  Q 316.11 85.20 257.22 83.79
  L 257.56 15.01
  Z"
/>
<path fill="#e5e5e5" d="
  M 257.22 83.79
  Q 316.11 85.20 352.66 128.60
  Q 371.71 151.22 378.30 181.89
  C 388.64 229.97 368.91 280.50 327.84 308.86
  Q 296.48 330.51 257.26 330.90
  Q 258.13 330.72 257.75 329.26
  Q 257.49 328.31 257.49 327.69
  Q 257.54 305.03 257.41 282.37
  Q 257.41 282.28 257.56 279.64
  Q 257.67 277.88 257.14 276.57
  Q 257.38 276.55 257.62 276.53
  L 277.25 276.43
  A 0.40 0.39 -90.0 0 0 277.64 276.03
  L 277.63 230.04
  A 0.70 0.69 0.0 0 1 278.33 229.35
  Q 284.86 229.35 292.84 229.24
  Q 311.26 228.98 324.44 216.81
  C 350.32 192.91 339.78 151.42 307.13 140.58
  Q 300.62 138.42 291.00 138.37
  Q 274.64 138.28 258.29 138.35
  Q 258.02 138.26 257.53 138.34
  L 257.59 83.93
  Q 257.41 83.86 257.22 83.79
  Z"
/>
<path fill="#ffffff" d="
  M 257.59 83.93
  L 257.53 138.34
  L 248.26 138.43
  A 0.56 0.56 0.0 0 0 247.70 139.00
  L 247.78 275.53
  Q 247.78 276.07 248.32 276.10
  L 257.14 276.57
  Q 257.67 277.88 257.56 279.64
  Q 257.41 282.28 257.41 282.37
  Q 257.54 305.03 257.49 327.69
  Q 257.49 328.31 257.75 329.26
  Q 258.13 330.72 257.26 330.90
  C 190.67 330.10 136.53 278.45 134.11 211.69
  C 131.55 141.43 187.77 84.41 257.59 83.93
  Z
  M 231.90 138.94
  A 0.61 0.61 0.0 0 0 231.29 138.33
  L 202.59 138.33
  A 0.61 0.61 0.0 0 0 201.98 138.94
  L 201.98 275.82
  A 0.61 0.61 0.0 0 0 202.59 276.43
  L 231.29 276.43
  A 0.61 0.61 0.0 0 0 231.90 275.82
  L 231.90 138.94
  Z"
/>
<rect fill="#537983" x="201.98" y="138.33" width="29.92" height="138.10" rx="0.61"/>
<path fill="#537983" d="
  M 257.53 138.34
  Q 258.02 138.26 258.29 138.35
  Q 257.67 138.36 257.38 138.62
  Q 257.14 138.83 257.26 139.41
  Q 257.39 140.08 257.39 140.75
  Q 257.34 208.64 257.62 276.53
  Q 257.38 276.55 257.14 276.57
  L 248.32 276.10
  Q 247.78 276.07 247.78 275.53
  L 247.70 139.00
  A 0.56 0.56 0.0 0 1 248.26 138.43
  L 257.53 138.34
  Z"
/>
<path fill="#384949" d="
  M 258.29 138.35
  Q 274.64 138.28 291.00 138.37
  Q 300.62 138.42 307.13 140.58
  C 339.78 151.42 350.32 192.91 324.44 216.81
  Q 311.26 228.98 292.84 229.24
  Q 284.86 229.35 278.33 229.35
  A 0.70 0.69 0.0 0 0 277.63 230.04
  L 277.64 276.03
  A 0.40 0.39 90.0 0 1 277.25 276.43
  L 257.62 276.53
  Q 257.34 208.64 257.39 140.75
  Q 257.39 140.08 257.26 139.41
  Q 257.14 138.83 257.38 138.62
  Q 257.67 138.36 258.29 138.35
  Z
  M 277.71 168.77
  L 277.71 198.85
  A 0.65 0.65 0.0 0 0 278.36 199.50
  L 292.03 199.50
  A 17.02 15.55 0.0 0 0 309.05 183.95
  L 309.05 183.67
  A 17.02 15.55 -0.0 0 0 292.03 168.12
  L 278.36 168.12
  A 0.65 0.65 0.0 0 0 277.71 168.77
  Z"
/>
<path fill="#e5e5e5" d="
  M 277.71 168.77
  A 0.65 0.65 0.0 0 1 278.36 168.12
  L 292.03 168.12
  A 17.02 15.55 0.0 0 1 309.05 183.67
  L 309.05 183.95
  A 17.02 15.55 0.0 0 1 292.03 199.50
  L 278.36 199.50
  A 0.65 0.65 0.0 0 1 277.71 198.85
  L 277.71 168.77
  Z"
/>
<path fill="#891b16" d="
  M 342.19 381.30
  Q 308.31 431.97 275.09 481.83
  C 273.65 483.99 271.68 485.93 270.30 488.32
  Q 265.37 496.86 260.07 504.45
  Q 258.26 504.43 258.09 503.12
  Q 257.74 500.41 257.73 497.53
  Q 257.58 448.41 257.60 400.81
  Q 257.60 400.10 258.32 400.10
  Q 291.20 399.98 322.36 388.95
  Q 324.18 388.30 332.21 385.00
  Q 337.05 383.01 342.19 381.30
  Z"
/>
</svg>
